<svg width="175" height="55" viewBox="0 0 175 55" fill="none" xmlns="http://www.w3.org/2000/svg">
<g clip-path="url(#clip0)">
<path d="M172.227 44.0127V7.32026L173.719 5.79898C174.061 5.45082 174.061 4.88686 173.719 4.53879C173.378 4.19063 172.824 4.19063 172.483 4.53879L170.99 6.06007H134.985L133.493 4.5387C133.151 4.19055 132.598 4.19055 132.256 4.5387C131.914 4.88686 131.914 5.45082 132.256 5.79889L133.749 7.32018V44.0127L132.256 45.5341C131.914 45.8823 131.914 46.4462 132.256 46.7943C132.427 46.9683 132.651 47.0554 132.874 47.0554C133.098 47.0554 133.322 46.9683 133.493 46.7943L134.985 45.273H170.99L172.483 46.7943C172.653 46.9683 172.877 47.0554 173.101 47.0554C173.325 47.0554 173.548 46.9683 173.719 46.7943C174.061 46.4461 174.061 45.8822 173.719 45.5341L172.227 44.0127ZM152.988 7.84245H169.241L164.701 12.4687C161.597 9.60428 157.496 7.84245 152.988 7.84245C148.48 7.84245 144.378 9.60428 141.274 12.4687L136.734 7.84245H152.988ZM151.751 25.6665L141.274 36.3441C138.779 33.5044 137.247 29.7688 137.247 25.6665C137.247 21.5642 138.779 17.8286 141.274 14.9889L151.751 25.6665ZM142.51 13.7287C145.297 11.1861 148.962 9.62483 152.988 9.62483C157.013 9.62483 160.679 11.1861 163.465 13.7287L152.988 24.4063L142.51 13.7287ZM152.988 26.9267L163.465 37.6043C160.679 40.1469 157.013 41.7082 152.988 41.7082C148.962 41.7082 145.297 40.1469 142.51 37.6043L152.988 26.9267ZM154.224 25.6665L164.702 14.9889C167.197 17.8286 168.729 21.5642 168.729 25.6665C168.729 29.7688 167.197 33.5044 164.702 36.3441L154.224 25.6665ZM135.498 25.6665V9.10264L140.037 13.7289C137.227 16.8927 135.498 21.0724 135.498 25.6665C135.498 30.2606 137.227 34.4403 140.037 37.6041L135.498 42.2304V25.6665ZM152.988 43.4905H136.734L141.274 38.8643C144.378 41.7287 148.48 43.4905 152.988 43.4905C157.496 43.4905 161.597 41.7287 164.701 38.8643L169.241 43.4905H152.988ZM170.477 25.6665V42.2304L165.938 37.6041C168.749 34.4403 170.477 30.2606 170.477 25.6665C170.477 21.0724 168.749 16.8927 165.938 13.7289L170.477 9.10264V25.6665Z" fill="#188D95"/>
</g>
<g clip-path="url(#clip1)">
<path d="M110.481 8.73462L109.346 14.9754C107.293 15.0762 106.109 15.7137 105.143 16.2348C104.226 16.7294 103.501 17.1202 101.908 17.1202C100.316 17.1202 99.591 16.7294 98.6737 16.2348C97.6216 15.6673 96.3122 14.9612 93.9018 14.9612C91.4915 14.9612 90.1822 15.6674 89.1302 16.2348C88.213 16.7294 87.4884 17.1202 85.8958 17.1202C84.3032 17.1202 83.5788 16.7294 82.6616 16.2348C81.6095 15.6674 80.3002 14.9612 77.89 14.9612C75.4798 14.9612 74.1706 15.6674 73.1186 16.2348C72.2015 16.7295 71.4771 17.1202 69.8846 17.1202C68.2919 17.1202 67.5675 16.7294 66.6503 16.2348C65.7736 15.762 64.7174 15.193 62.9948 15.0165L61.8528 8.73462L58.6667 9.31396L65.3851 46.2656H106.948L113.667 9.31407L110.481 8.73462ZM104.245 43.0272H68.0877L63.613 18.416C64.1699 18.5774 64.6134 18.8155 65.1132 19.0851C66.1652 19.6524 67.4745 20.3586 69.8847 20.3586C72.2949 20.3586 73.6041 19.6524 74.656 19.0851C75.5732 18.5904 76.2975 18.1997 77.89 18.1997C79.4827 18.1997 80.2071 18.5905 81.1243 19.0851C82.1763 19.6524 83.4856 20.3586 85.8958 20.3586C88.306 20.3586 89.6154 19.6526 90.6674 19.0851C91.5847 18.5905 92.3092 18.1997 93.9019 18.1997C95.4948 18.1997 96.2193 18.5905 97.1365 19.0851C98.1886 19.6526 99.4978 20.3586 101.908 20.3586C104.319 20.3586 105.628 19.6526 106.68 19.0851C107.336 18.7311 107.896 18.4314 108.743 18.2889L104.245 43.0272Z" fill="#188D95"/>
<path d="M78.6105 23.5969H72.6735V26.8353H78.6105C79.5033 26.8353 80.2297 27.5617 80.2297 28.4545C80.2297 29.3473 79.5033 30.0737 78.6105 30.0737H75.3721V33.312H78.6105C79.5033 33.312 80.2297 34.0384 80.2297 34.9312C80.2297 35.824 79.5033 36.5504 78.6105 36.5504H72.6735V39.7888H78.6105C81.2889 39.7888 83.468 37.6097 83.468 34.9312C83.468 33.688 82.9981 32.553 82.2272 31.6928C82.998 30.8327 83.468 29.6977 83.468 28.4545C83.468 25.7759 81.2889 23.5969 78.6105 23.5969Z" fill="#188D95"/>
<path d="M93.1831 23.5969C89.6119 23.5969 86.7064 26.5024 86.7064 30.0737V33.312C86.7064 36.8833 89.6119 39.7888 93.1831 39.7888C96.7544 39.7888 99.6599 36.8833 99.6599 33.312V30.0737C99.6599 26.5024 96.7544 23.5969 93.1831 23.5969ZM96.4215 33.312C96.4215 35.0977 94.9688 36.5504 93.1831 36.5504C91.3975 36.5504 89.9448 35.0977 89.9448 33.312V30.0737C89.9448 28.288 91.3975 26.8353 93.1831 26.8353C94.9688 26.8353 96.4215 28.288 96.4215 30.0737V33.312Z" fill="#188D95"/>
<path d="M100.739 23.5969H103.978V26.8353H100.739V23.5969Z" fill="#188D95"/>
</g>
<g clip-path="url(#clip2)">
<path d="M39.4167 5.5H0.916696C0.410008 5.5 0 5.91001 0 6.4167V44.9167C0 45.4234 0.410008 45.8334 0.916696 45.8334H39.4167C39.9234 45.8334 40.3334 45.4234 40.3334 44.9167V6.4167C40.3333 5.91001 39.9234 5.5 39.4167 5.5ZM38.5 25.6667V44H20.1667H1.83331V25.6667V7.33331H20.1666H38.5V25.6667Z" fill="#188D95"/>
<path d="M20.1667 7.33325C10.0575 7.33325 1.8334 15.5573 1.8334 25.6666C1.8334 35.7758 10.0574 44 20.1667 44C30.2761 44 38.5 35.7759 38.5 25.6667C38.5 15.5574 30.276 7.33325 20.1667 7.33325ZM20.1667 42.1667C11.0689 42.1667 3.66671 34.7644 3.66671 25.6667C3.66671 16.5689 11.0689 9.16664 20.1667 9.16664C29.2645 9.16664 36.6667 16.5689 36.6667 25.6667C36.6667 34.7644 29.2644 42.1667 20.1667 42.1667Z" fill="#188D95"/>
<path d="M16.5 27.5001C17.5125 27.5001 18.3333 26.6793 18.3333 25.6668C18.3333 24.6543 17.5125 23.8335 16.5 23.8335C15.4875 23.8335 14.6667 24.6543 14.6667 25.6668C14.6667 26.6793 15.4875 27.5001 16.5 27.5001Z" fill="#188D95"/>
<path d="M23.8333 27.5001C24.8458 27.5001 25.6666 26.6793 25.6666 25.6668C25.6666 24.6543 24.8458 23.8335 23.8333 23.8335C22.8208 23.8335 22 24.6543 22 25.6668C22 26.6793 22.8208 27.5001 23.8333 27.5001Z" fill="#188D95"/>
</g>
<defs>
<clipPath id="clip0">
<rect width="42.7778" height="42.7778" fill="white" transform="translate(132 4.27783)"/>
</clipPath>
<clipPath id="clip1">
<rect width="55" height="55" fill="white" transform="translate(58.6667)"/>
</clipPath>
<clipPath id="clip2">
<rect width="40.3333" height="40.3333" fill="white" transform="translate(0 5.5)"/>
</clipPath>
</defs>
</svg>
