<svg width="574" height="343" viewBox="0 0 574 343" fill="none" xmlns="http://www.w3.org/2000/svg">
<path fill-rule="evenodd" clip-rule="evenodd" d="M30.1518 341.828C33.9464 341.828 38.0158 341.924 42.3599 342.115V338.646C40.0779 338.649 37.8023 338.401 35.5729 337.905C35.2006 337.721 34.8998 337.415 34.7183 337.037C34.2793 334.854 34.0885 332.628 34.1499 330.401L33.9859 314.565L39.3269 314.441C41.9808 314.334 44.6383 314.515 47.2545 314.98C47.4633 315.016 47.662 315.098 47.8371 315.219C48.0122 315.34 48.1596 315.498 48.2693 315.682C48.773 317.736 49.0292 319.845 49.0323 321.962H52.5269C52.4455 317.018 52.4048 313.415 52.4048 311.154C52.4048 308.753 52.4455 306.338 52.5269 303.909H49.0133C49.0066 305.668 48.7601 307.417 48.2808 309.107C48.1786 309.278 48.0428 309.425 47.8819 309.54C47.7211 309.655 47.5387 309.734 47.3461 309.774C44.8636 310.051 42.3648 310.148 39.8686 310.065C37.5644 310.065 35.5996 310.023 33.9744 309.941L34.0164 308.037L33.9363 299.121C33.9363 297.186 34.0851 293.888 34.3826 289.229C37.0099 288.97 39.5037 288.841 41.8639 288.841C44.3328 288.788 46.8016 288.954 49.2422 289.337C50.3026 289.43 51.3296 289.761 52.2484 290.306C52.6542 291.102 52.8438 291.993 52.7978 292.888L53.1221 297.307H56.5556C56.6382 293.234 56.9912 289.172 57.6123 285.147L57.2041 284.294C55.5916 284.219 53.9079 284.182 52.153 284.182C49.686 284.182 46.6505 284.213 43.0466 284.275C37.5733 284.352 32.3429 284.391 27.3553 284.391C23.9396 284.391 19.8614 284.321 15.1206 284.182V287.651C17.0431 287.622 18.9599 287.873 20.8126 288.395C21.1358 288.594 21.3802 288.901 21.5031 289.264C22.0361 292.674 22.2672 296.126 22.1936 299.579C22.3284 305.536 22.3958 311.118 22.3958 316.325C22.3958 323.355 22.233 329.557 21.9075 334.932C22.0123 335.973 21.7411 337.018 21.1445 337.871C19.2244 338.596 17.1656 338.861 15.1282 338.646V342.115C21.7943 341.921 26.8073 341.826 30.167 341.828H30.1518ZM138.739 339.08C143.367 336.605 147.187 332.817 149.734 328.176C152.441 323.045 153.786 317.287 153.637 311.468C153.806 306.216 152.577 301.014 150.081 296.412C147.677 292.294 144.156 288.968 139.941 286.829C134.638 284.335 128.829 283.154 122.99 283.383C116.919 283.145 110.88 284.377 105.369 286.977C100.892 289.285 97.1707 292.865 94.6563 297.28C91.9602 302.259 90.627 307.881 90.7955 313.561C90.5806 317.516 91.1779 321.473 92.5492 325.181C93.9206 328.889 96.0361 332.267 98.7612 335.099C105.097 340.691 113.355 343.505 121.728 342.925C127.629 343.099 133.481 341.778 138.754 339.08H138.739ZM112.644 335.773C109.598 333.557 107.26 330.482 105.918 326.927C104.033 322.17 103.133 317.068 103.274 311.941C102.778 305.497 104.479 299.076 108.093 293.756C109.758 291.774 111.852 290.209 114.21 289.184C116.569 288.159 119.128 287.7 121.69 287.845C124.279 287.634 126.882 288.036 129.294 289.018C131.706 289.999 133.861 291.535 135.592 293.504C139.656 299.382 141.622 306.494 141.161 313.662C141.652 320.261 139.941 326.836 136.305 332.327C134.762 334.32 132.778 335.915 130.514 336.982C128.25 338.049 125.771 338.558 123.277 338.468C119.549 338.642 115.851 337.706 112.64 335.773H112.644ZM201.862 341.828C205.624 341.828 209.94 341.924 214.811 342.115V338.646C212.951 338.683 211.098 338.432 209.313 337.902C208.926 337.726 208.612 337.419 208.424 337.033C208.012 334.755 207.796 332.445 207.779 330.129C207.51 324.674 207.375 320.196 207.375 316.697L207.718 301.234L207.986 289.043C210.076 288.849 211.729 288.752 212.945 288.752C216.081 288.508 219.19 289.5 221.624 291.524C222.618 292.54 223.39 293.758 223.889 295.098C224.388 296.438 224.603 297.87 224.52 299.3C224.617 300.962 224.338 302.624 223.704 304.159C223.069 305.694 222.097 307.061 220.861 308.154C218.826 310.058 216.187 311.158 213.422 311.255C212.619 311.231 211.818 311.162 211.022 311.049C210.864 311.562 210.66 312.059 210.412 312.534L218.786 325.462C223.473 332.734 226.996 338.283 229.353 342.108C231.332 341.999 235.763 341.916 242.645 341.859L245.045 341.821V338.646C243.999 338.693 242.956 338.502 241.993 338.088C240.886 337.259 239.924 336.247 239.147 335.095L232.398 324.935L223.742 311.673C227.52 310.365 230.902 308.085 233.558 305.056C235.44 302.571 236.435 299.509 236.381 296.373C236.437 294.001 235.824 291.662 234.614 289.632C233.486 287.766 231.808 286.308 229.819 285.465C226.706 284.434 223.433 283.994 220.163 284.166L199.798 284.457C198.173 284.457 194.555 284.36 188.945 284.166V287.636C190.723 287.715 192.484 288.021 194.187 288.547C194.502 288.725 194.736 289.021 194.839 289.372C195.436 292.556 195.692 295.796 195.602 299.036C195.709 306.089 195.763 311.903 195.766 316.48C195.766 319.868 195.699 324.508 195.564 330.401C195.617 332.645 195.426 334.889 194.995 337.091C194.878 337.421 194.648 337.696 194.347 337.867C192.579 338.329 190.766 338.589 188.941 338.642V342.111C193.542 341.918 197.844 341.822 201.847 341.825L201.862 341.828ZM356.23 341.828C360.299 341.828 364.316 341.924 368.282 342.115V338.646C366.139 338.746 363.994 338.509 361.922 337.944C361.561 337.613 361.277 337.204 361.091 336.747C360.904 336.291 360.819 335.798 360.842 335.304C360.573 332.666 360.438 328.112 360.438 321.644C360.313 319.489 360.532 317.328 361.086 315.244C361.793 313.566 365.208 307.858 371.33 298.117C373.803 294.022 376.476 290.055 379.341 286.232V284.182H372.718C367.759 293.449 363.761 300.694 360.724 305.917L357.393 311.689C353.624 303.983 350.519 298.084 348.077 293.993C346.455 291.052 344.537 288.291 342.355 285.752C341.3 284.745 340.09 283.921 338.772 283.313C334.37 284.43 329.919 285.381 325.42 286.166V289.426L327.373 289.345C327.995 289.32 328.613 289.463 329.162 289.76C331.026 291.091 332.649 292.741 333.958 294.636C335.853 297.112 338.589 301.234 342.168 307.002C344.488 310.515 346.579 314.178 348.428 317.969C348.909 320.26 349.088 322.607 348.958 324.946L348.916 327.962C348.726 333.056 348.599 335.74 348.535 336.014C348.496 336.41 348.361 336.791 348.143 337.122C347.925 337.454 347.63 337.725 347.284 337.913C345.42 338.526 343.459 338.779 341.504 338.657V342.127C346.845 341.933 351.756 341.837 356.238 341.84L356.23 341.828ZM461.097 339.08C465.725 336.605 469.545 332.816 472.092 328.176C474.799 323.045 476.144 317.287 475.995 311.468C476.164 306.216 474.935 301.014 472.439 296.412C470.034 292.294 466.512 288.967 462.295 286.829C456.993 284.335 451.184 283.154 445.345 283.383C439.274 283.146 433.234 284.377 427.723 286.977C423.247 289.285 419.525 292.865 417.011 297.28C414.316 302.26 412.983 307.881 413.15 313.561C412.935 317.517 413.533 321.474 414.905 325.182C416.277 328.89 418.393 332.267 421.12 335.099C427.455 340.691 435.713 343.505 444.086 342.925C449.981 343.096 455.826 341.775 461.094 339.08H461.097ZM434.999 335.773C431.953 333.557 429.615 330.481 428.273 326.927C426.387 322.17 425.487 317.068 425.629 311.941C425.132 305.497 426.834 299.076 430.447 293.756C432.113 291.774 434.207 290.209 436.565 289.184C438.923 288.159 441.483 287.7 444.044 287.845C446.634 287.634 449.237 288.035 451.649 289.017C454.061 289.999 456.216 291.535 457.946 293.504C462.011 299.382 463.976 306.494 463.516 313.662C464.006 320.261 462.296 326.836 458.66 332.327C457.117 334.32 455.132 335.915 452.869 336.982C450.605 338.049 448.125 338.558 445.631 338.468C441.903 338.642 438.206 337.705 434.995 335.773H434.999ZM515.923 288.38C516.339 288.571 516.687 288.888 516.919 289.287C517.37 290.526 517.578 291.843 517.529 293.163C517.667 299.249 517.734 303.035 517.731 304.521L517.529 323.128C517.303 326.967 518.093 330.797 519.818 334.219C521.7 337.044 524.378 339.225 527.502 340.476C531.805 342.261 536.43 343.105 541.076 342.953C545.59 343.102 550.079 342.213 554.207 340.351C557.331 338.973 559.968 336.661 561.768 333.723C563.376 330.727 564.306 327.404 564.492 323.997C564.627 322.446 564.694 319.182 564.694 314.205C564.722 306.413 564.885 299.435 565.183 293.272C565.057 291.612 565.478 289.956 566.381 288.566C567.927 287.76 569.676 287.443 571.401 287.655V284.182C567.691 284.375 564.561 284.472 562.013 284.472C559.057 284.472 555.832 284.375 552.338 284.182V287.651C554.351 287.64 556.354 287.947 558.274 288.562C558.656 288.729 558.96 289.038 559.125 289.426C559.558 291.463 559.723 293.548 559.613 295.629L559.655 310.91C559.913 316.541 559.517 322.184 558.476 327.722C557.718 330.245 556.067 332.393 553.841 333.75C550.767 335.395 547.309 336.152 543.842 335.94C540.764 335.969 537.725 335.247 534.979 333.835C533.108 332.841 531.609 331.252 530.71 329.311C529.563 326.279 529.065 323.034 529.249 319.791C529.249 314.532 529.29 309.355 529.371 304.262C529.478 296.935 529.613 292.502 529.775 290.962C529.812 290.273 530.022 289.605 530.386 289.023C530.591 288.703 530.89 288.458 531.24 288.322C532.949 287.782 534.738 287.557 536.524 287.659V284.182C531.672 284.375 527.919 284.472 525.266 284.472C521.093 284.472 516.241 284.375 510.712 284.182V287.651C512.467 287.716 514.212 287.96 515.919 288.38H515.923Z" fill="#282828" fill-opacity="0.24"/>
<g filter="url(#filter0_b)">
<path fill-rule="evenodd" clip-rule="evenodd" d="M160.132 128.036C156.137 120.353 150.4 113.745 143.394 108.759C136.137 103.695 128.148 99.8089 119.714 97.2398C110.867 94.4732 101.919 91.8901 92.8713 89.4904C80.9841 87.2449 69.4245 83.4798 58.4684 78.2847C55.479 76.8514 52.9586 74.5747 51.2082 71.7262C49.4577 68.8777 48.5511 65.5777 48.5966 62.2201C48.3965 58.6953 49.1808 55.1849 50.8592 52.0931C52.5376 49.0014 55.0418 46.4543 58.0832 44.7452C65.6653 40.7361 74.1501 38.8176 82.6904 39.1811C91.7299 38.9343 100.688 40.9742 108.759 45.1171C116.883 49.8978 123.679 56.6977 128.506 64.8782L161.692 38.5495C146.366 12.8498 120.241 0 83.3198 0C57.8111 0 38.2186 5.77203 24.5424 17.3161C10.8662 28.8601 4.02174 44.9195 4.00903 65.4943C3.65419 75.229 5.7801 84.892 10.1809 93.5472C14.3021 100.975 20.0904 107.31 27.0752 112.037C34.9316 117.286 43.5091 121.326 52.5293 124.026C62.3503 127.107 72.8147 130.163 83.9225 133.193C92.1706 135.13 100.226 137.831 107.988 141.264C112.071 143.17 115.643 146.046 118.402 149.649C120.805 153.188 122.022 157.419 121.873 161.715C122.075 165.487 121.253 169.242 119.499 172.572C117.744 175.902 115.123 178.679 111.921 180.6C103.415 185.183 93.8416 187.326 84.2277 186.8C77.1248 186.92 70.0468 185.916 63.248 183.824C57.5539 182.039 52.2236 179.225 47.5132 175.517C42.1229 170.88 37.3979 165.5 33.4759 159.534L0 185.548C8.00666 199.096 19.8671 209.86 34.0176 216.422C49.5944 223.124 66.3966 226.382 83.3084 225.981C110.666 225.981 131.365 220.183 145.404 208.587C159.444 196.992 166.464 180.33 166.464 158.604C166.869 148.04 164.693 137.538 160.132 128.036ZM374.125 221.417V4.53341H331.402V150.742L259.023 4.53341H202.568V221.417H245.13V66.4281L322.885 221.417H374.102H374.125ZM567.428 128.036C563.434 120.352 557.696 113.744 550.69 108.759C543.432 103.695 535.443 99.8085 527.009 97.2398C518.162 94.4732 509.215 91.8901 500.167 89.4904C488.28 87.245 476.72 83.4798 465.764 78.2847C462.774 76.852 460.253 74.5755 458.501 71.7269C456.75 68.8784 455.843 65.5781 455.888 62.2201C455.688 58.6949 456.473 55.1839 458.152 52.0921C459.831 49.0002 462.336 46.4534 465.379 44.7452C472.96 40.7364 481.443 38.8179 489.982 39.1811C499.026 38.939 507.987 40.9856 516.058 45.1365C524.182 49.9166 530.976 56.7167 535.802 64.8976L568.988 38.5689C553.661 12.8692 527.537 0.0193703 490.615 0.0193703C465.109 0.0193703 445.517 5.7914 431.838 17.3355C418.159 28.8795 411.31 44.9324 411.289 65.4943C410.934 75.229 413.06 84.892 417.461 93.5472C421.581 100.974 427.368 107.309 434.352 112.037C442.21 117.286 450.788 121.326 459.809 124.026C469.628 127.107 480.092 130.163 491.203 133.193C499.451 135.129 507.507 137.831 515.268 141.264C519.352 143.169 522.924 146.045 525.682 149.649C528.086 153.187 529.303 157.419 529.153 161.715C529.355 165.486 528.535 169.242 526.78 172.572C525.026 175.902 522.406 178.679 519.205 180.6C510.699 185.183 501.126 187.326 491.512 186.8C484.409 186.921 477.331 185.917 470.532 183.824C464.836 182.04 459.505 179.225 454.794 175.517C449.404 170.88 444.679 165.5 440.756 159.534L407.276 185.548C415.284 199.095 427.144 209.859 441.294 216.422C456.871 223.123 473.673 226.382 490.585 225.981C517.942 225.981 538.641 220.183 552.681 208.587C566.721 196.992 573.741 180.33 573.741 158.604C574.148 148.04 571.974 137.538 567.412 128.036H567.428Z" fill="#282828" fill-opacity="0.47"/>
</g>
<defs>
<filter id="filter0_b" x="-10" y="-10" width="593.789" height="246.014" filterUnits="userSpaceOnUse" color-interpolation-filters="sRGB">
<feFlood flood-opacity="0" result="BackgroundImageFix"/>
<feGaussianBlur in="BackgroundImage" stdDeviation="5"/>
<feComposite in2="SourceAlpha" operator="in" result="effect1_backgroundBlur"/>
<feBlend mode="normal" in="SourceGraphic" in2="effect1_backgroundBlur" result="shape"/>
</filter>
</defs>
</svg>
