<svg width="29" height="21" viewBox="0 0 29 21" fill="none" xmlns="http://www.w3.org/2000/svg">
<g clip-path="url(#clip0)">
<path d="M24.0234 10H0.976562C0.437207 10 0 10.4372 0 10.9766C0 11.5159 0.437207 11.9531 0.976562 11.9531H24.0234C24.5628 11.9531 25 11.5159 25 10.9766C25 10.4372 24.5628 10 24.0234 10Z" fill="white"/>
<path d="M26.9062 3H1.09375C0.489672 3 0 3.4477 0 4C0 4.5523 0.489672 5 1.09375 5H26.9062C27.5103 5 28 4.5523 28 4C28 3.4477 27.5103 3 26.9062 3Z" fill="white"/>
<path d="M21.1406 17H0.859375C0.384742 17 0 17.4477 0 18C0 18.5523 0.384742 19 0.859375 19H21.1406C21.6153 19 22 18.5523 22 18C22 17.4477 21.6153 17 21.1406 17Z" fill="white"/>
</g>
<defs>
<clipPath id="clip0">
<rect width="29" height="21" fill="white"/>
</clipPath>
</defs>
</svg>
