<?xml version="1.0" encoding="iso-8859-1"?>
<!-- Generator: Adobe Illustrator 19.0.0, SVG Export Plug-In . SVG Version: 6.00 Build 0)  -->
<svg version="1.1" id="Capa_1" xmlns="http://www.w3.org/2000/svg" xmlns:xlink="http://www.w3.org/1999/xlink" x="0px" y="0px"
	 viewBox="0 0 469.333 469.333" style="enable-background:new 0 0 469.333 469.333;" xml:space="preserve">
<g>
	<g>
		<g>
			<path d="M458.667,0h-448C4.771,0,0,4.771,0,10.667v448c0,5.896,4.771,10.667,10.667,10.667h448
				c5.896,0,10.667-4.771,10.667-10.667v-448C469.333,4.771,464.563,0,458.667,0z M448,234.667V448H234.667H21.333V234.667V21.333
				h213.333H448V234.667z"/>
			<path d="M234.667,21.333c-117.635,0-213.333,95.698-213.333,213.333S117.031,448,234.667,448S448,352.302,448,234.667
				S352.302,21.333,234.667,21.333z M234.667,426.667c-105.865,0-192-86.135-192-192s86.135-192,192-192s192,86.135,192,192
				S340.531,426.667,234.667,426.667z"/>
			<circle cx="192" cy="234.667" r="21.333"/>
			<circle cx="277.333" cy="234.667" r="21.333"/>
		</g>
	</g>
</g>
<g>
</g>
<g>
</g>
<g>
</g>
<g>
</g>
<g>
</g>
<g>
</g>
<g>
</g>
<g>
</g>
<g>
</g>
<g>
</g>
<g>
</g>
<g>
</g>
<g>
</g>
<g>
</g>
<g>
</g>
</svg>
