<?xml version="1.0" encoding="iso-8859-1"?>
<!-- Generator: Adobe Illustrator 19.0.0, SVG Export Plug-In . SVG Version: 6.00 Build 0)  -->
<svg version="1.1" id="Capa_1" xmlns="http://www.w3.org/2000/svg" xmlns:xlink="http://www.w3.org/1999/xlink" x="0px" y="0px"
	 viewBox="0 0 512 512" style="enable-background:new 0 0 512 512;" xml:space="preserve">
<g>
	<g>
		<path d="M490.667,475.583V36.417l18.208-18.208c4.167-4.167,4.167-10.917,0-15.083c-4.167-4.167-10.917-4.167-15.083,0
			l-18.208,18.208H36.417L18.208,3.125c-4.167-4.167-10.917-4.167-15.083,0s-4.167,10.917,0,15.083l18.208,18.208v439.167
			L3.125,493.792c-4.167,4.167-4.167,10.917,0,15.083C5.208,510.958,7.938,512,10.667,512c2.729,0,5.458-1.042,7.542-3.125
			l18.208-18.208h439.167l18.208,18.208c2.083,2.083,4.813,3.125,7.542,3.125c2.729,0,5.458-1.042,7.542-3.125
			c4.167-4.167,4.167-10.917,0-15.083L490.667,475.583z M256,42.667h198.25l-55.371,55.371
			C361.012,63.754,310.986,42.667,256,42.667S150.988,63.754,113.121,98.038L57.75,42.667H256z M240.917,256L113.118,383.798
			C82.686,349.811,64,305.1,64,256s18.686-93.811,49.118-127.798L240.917,256z M128.202,113.118C162.189,82.686,206.9,64,256,64
			s93.811,18.686,127.798,49.118L256,240.917L128.202,113.118z M256,271.083l127.798,127.798C349.811,429.314,305.1,448,256,448
			s-93.811-18.686-127.798-49.118L256,271.083z M271.083,256l127.798-127.798C429.314,162.189,448,206.9,448,256
			s-18.686,93.811-49.118,127.798L271.083,256z M42.667,256V57.75l55.371,55.371C63.754,150.988,42.667,201.014,42.667,256
			s21.087,105.012,55.371,142.879L42.667,454.25V256z M256,469.333H57.75l55.371-55.371
			C150.988,448.246,201.014,469.333,256,469.333s105.012-21.087,142.879-55.371l55.371,55.371H256z M469.333,256v198.25
			l-55.371-55.371C448.246,361.012,469.333,310.986,469.333,256s-21.087-105.012-55.371-142.879l55.371-55.371V256z"/>
	</g>
</g>
<g>
</g>
<g>
</g>
<g>
</g>
<g>
</g>
<g>
</g>
<g>
</g>
<g>
</g>
<g>
</g>
<g>
</g>
<g>
</g>
<g>
</g>
<g>
</g>
<g>
</g>
<g>
</g>
<g>
</g>
</svg>
