<svg width="26" height="25" viewBox="0 0 26 25" fill="none" xmlns="http://www.w3.org/2000/svg">
<g clip-path="url(#clip0)">
<path d="M19.2207 0H7.7553C4.02377 0 0.988037 3.03573 0.988037 6.76726V18.2329C0.988037 21.9642 4.02377 25 7.7553 25H19.2209C22.9523 25 25.988 21.9642 25.988 18.2329V6.76726C25.988 3.03573 22.9523 0 19.2207 0V0ZM24.5224 18.2329C24.5224 21.1561 22.1441 23.5343 19.2207 23.5343H7.7553C4.83191 23.5343 2.45364 21.1561 2.45364 18.2329V6.76726C2.45364 3.84387 4.83191 1.4656 7.7553 1.4656H19.2209C22.1441 1.4656 24.5224 3.84387 24.5224 6.76726V18.2329Z" fill="#929292"/>
<path d="M13.488 5.66424C9.71872 5.66424 6.65228 8.73068 6.65228 12.5C6.65228 16.2693 9.71872 19.3357 13.488 19.3357C17.2573 19.3357 20.3237 16.2693 20.3237 12.5C20.3237 8.73068 17.2573 5.66424 13.488 5.66424ZM13.488 17.8701C10.5271 17.8701 8.11789 15.4611 8.11789 12.5C8.11789 9.53901 10.5271 7.12984 13.488 7.12984C16.4492 7.12984 18.8581 9.53901 18.8581 12.5C18.8581 15.4611 16.4492 17.8701 13.488 17.8701Z" fill="#929292"/>
<path d="M20.4872 3.23657C19.3733 3.23657 18.4673 4.14275 18.4673 5.25645C18.4673 6.37034 19.3733 7.27652 20.4872 7.27652C21.6011 7.27652 22.5073 6.37034 22.5073 5.25645C22.5073 4.14256 21.6011 3.23657 20.4872 3.23657ZM20.4872 5.81072C20.1817 5.81072 19.9329 5.56201 19.9329 5.25645C19.9329 4.9507 20.1817 4.70218 20.4872 4.70218C20.793 4.70218 21.0417 4.9507 21.0417 5.25645C21.0417 5.56201 20.793 5.81072 20.4872 5.81072Z" fill="#929292"/>
</g>
<defs>
<clipPath id="clip0">
<rect width="25" height="25" fill="white" transform="translate(0.988037)"/>
</clipPath>
</defs>
</svg>
