<svg width="246" height="245" viewBox="0 0 246 245" fill="none" xmlns="http://www.w3.org/2000/svg">
<g clip-path="url(#clip0)">
<path d="M55.8255 244.211H84.9595L38.9897 214.748L1.2027 192.668C2.85311 221.368 26.7201 244.211 55.8255 244.211Z" fill="#FDE494"/>
<path d="M161.05 227.375L128.148 218.957H55.8255C39.5799 218.957 26.3627 205.74 26.3627 189.495V173.343L13.7356 159.792L1.10858 162.025V189.495C1.10858 190.561 1.14299 191.618 1.20271 192.669L84.9595 244.212H184.499L161.05 227.375Z" fill="#FEA150"/>
<path d="M211.689 209.948C206.328 215.497 198.819 218.957 190.513 218.957H128.148L184.499 244.212H190.513C210.158 244.212 227.415 233.803 237.068 218.213L224.183 210.54L211.689 209.948Z" fill="#FF5D4A"/>
<path d="M219.976 155.533V189.494C219.976 197.434 216.813 204.645 211.689 209.948L237.068 218.213C242.24 209.859 245.23 200.02 245.23 189.494V159.549L232.167 152.21L219.976 155.533Z" fill="#E45261"/>
<path d="M245.23 71.2234L231.783 68.0215L219.976 75.0905V155.533L245.23 159.549V71.2234Z" fill="#FF4D95"/>
<path d="M245.23 54.8067C245.23 27.3273 224.867 4.5173 198.439 0.666016L165.333 14.4422L148.557 25.3439H190.513C206.759 25.3439 219.976 38.561 219.976 54.8067V75.0904L245.23 71.2234V54.8067Z" fill="#CB319C"/>
<path d="M152.603 0.0898438L121.286 11.8363L96.586 25.3439H148.558L198.439 0.666103C195.85 0.28862 193.204 0.0898438 190.513 0.0898438H152.603Z" fill="#8A3293"/>
<path d="M123.169 193.703C131.923 193.703 140.312 192.12 148.071 189.231L107.057 170.613L63.583 161.718C76.4174 180.983 98.3339 193.703 123.169 193.703Z" fill="#FF5D4A"/>
<path d="M158.048 145.685C150.475 156.872 137.666 164.24 123.169 164.24C103.967 164.24 87.7386 151.31 82.7042 133.703L71.4127 126.646L51.9365 128.81C53.0584 140.895 57.1878 152.119 63.5821 161.718L148.07 189.231C166.333 182.43 181.082 168.368 188.816 150.578L173.676 142.909L158.048 145.685Z" fill="#E45261"/>
<path d="M81.0796 122.15C81.0796 111.719 84.9022 102.169 91.21 94.8073L73.2547 92.2954L55.017 100.349C52.8118 107.226 51.6168 114.55 51.6168 122.15C51.6168 124.396 51.7329 126.615 51.9365 128.809L82.7042 133.701C81.6539 130.029 81.0796 126.157 81.0796 122.15Z" fill="#FF4D95"/>
<path d="M194.722 122.15C194.722 106.827 189.878 92.6142 181.644 80.9595L163.813 78.429L145.496 86.4951C157.355 93.9483 165.259 107.14 165.259 122.151C165.259 130.862 162.599 138.963 158.049 145.685L188.817 150.577C192.608 141.859 194.722 132.249 194.722 122.15Z" fill="#FF4D95"/>
<path d="M123.169 80.0602C131.368 80.0602 139.019 82.4245 145.496 86.4946L181.644 80.9595C168.678 62.6061 147.301 50.5974 123.169 50.5974C91.3142 50.5974 64.2591 71.5234 55.017 100.349L91.21 94.8069C98.935 85.7903 110.392 80.0602 123.169 80.0602Z" fill="#CB319C"/>
<path d="M190.513 71.6424C199.796 71.6424 207.349 64.0899 207.349 54.8067C207.349 45.5235 199.796 37.9709 190.513 37.9709C181.23 37.9709 173.677 45.5235 173.677 54.8067C173.677 64.0899 181.23 71.6424 190.513 71.6424Z" fill="#CB319C"/>
<path d="M26.3627 149.597L14.2063 143.534L1.10857 141.373V162.025L26.3627 173.342V149.597Z" fill="#FF5D4A"/>
<path d="M1.10858 120.727V141.373L26.3627 149.597V124.742L13.2411 120.025L1.10858 120.727Z" fill="#E45261"/>
<path d="M26.3627 104.737L13.3859 104.62L1.10858 108.604V120.727L26.3627 124.742V104.737Z" fill="#FF4D95"/>
<path d="M26.3627 85.7981L12.9864 87.1546L1.10857 98.2923V108.604L26.3627 104.737V85.7981Z" fill="#CB319C"/>
<path d="M1.10857 98.2924L26.3627 85.7982V57.002L11.5505 58.4182L1.10857 68.3871V98.2924Z" fill="#8A3293"/>
<path d="M98.8805 0.0898438L41.258 22.2519L1.76988 46.3053C1.33601 49.0766 1.10857 51.9159 1.10857 54.8067V68.3871L26.3627 57.0024V54.8067C26.3627 38.5611 39.5798 25.3439 55.8255 25.3439H96.586L152.603 0.0898438H98.8805Z" fill="#523494"/>
<path d="M55.8255 0.0898438C28.5459 0.0898438 5.86629 20.1571 1.76988 46.3052L98.8805 0.0898438H55.8255Z" fill="#2D2D87"/>
<path d="M123.169 47.967C82.2646 47.967 48.9859 81.2453 48.9859 122.151C48.9859 135.192 52.4181 148.019 58.9127 159.245C60.0041 161.131 62.4181 161.775 64.3045 160.685C66.1905 159.594 66.8356 157.181 65.7447 155.294C59.9443 145.267 56.8781 133.806 56.8781 122.151C56.8781 85.5973 86.6162 55.8593 123.169 55.8593C159.723 55.8593 189.461 85.5973 189.461 122.151C189.461 158.704 159.723 188.442 123.169 188.442C104.777 188.442 87.6808 181.085 75.0293 167.726C73.5309 166.144 71.0333 166.075 69.4507 167.574C67.8686 169.073 67.8003 171.57 69.2992 173.153C83.4568 188.101 102.588 196.334 123.169 196.334C164.074 196.334 197.353 163.055 197.353 122.15C197.353 81.2448 164.074 47.967 123.169 47.967Z" fill="white"/>
<path d="M123.169 170.028C149.569 170.028 171.047 148.55 171.047 122.15C171.047 95.7503 149.569 74.2734 123.169 74.2734C96.77 74.2734 75.2921 95.7508 75.2921 122.15C75.2921 148.55 96.7695 170.028 123.169 170.028ZM123.169 82.1652C145.218 82.1652 163.155 100.102 163.155 122.151C163.155 144.199 145.218 162.136 123.169 162.136C101.121 162.136 83.1839 144.199 83.1839 122.151C83.1839 100.102 101.121 82.1652 123.169 82.1652Z" fill="white"/>
<path d="M190.513 37.4443C180.94 37.4443 173.151 45.2329 173.151 54.8062C173.151 64.3794 180.94 72.168 190.513 72.168C200.086 72.168 207.875 64.3794 207.875 54.8062C207.875 45.2329 200.086 37.4443 190.513 37.4443ZM190.513 64.2767C185.291 64.2767 181.043 60.0283 181.043 54.8066C181.043 49.585 185.291 45.3366 190.513 45.3366C195.735 45.3366 199.983 49.585 199.983 54.8066C199.983 60.0283 195.735 64.2767 190.513 64.2767Z" fill="white"/>
<path d="M245.23 54.5435C245.23 24.47 220.85 0.0898438 190.776 0.0898438H55.0361C24.9626 0.0898438 0.582489 24.47 0.582489 54.5435V190.283C0.582489 220.357 24.9626 244.737 55.0361 244.737H190.776C220.85 244.737 245.23 220.357 245.23 190.284V54.5435ZM237.338 190.284C237.338 215.999 216.491 236.845 190.776 236.845H55.0361C29.3209 236.845 8.47428 215.999 8.47428 190.284V54.5435C8.47428 28.8283 29.3209 7.98163 55.0361 7.98163H190.776C216.491 7.98163 237.338 28.8283 237.338 54.5435V190.284H237.338Z" fill="white"/>
<path d="M226.815 56.1223C226.815 35.3468 209.973 18.5044 189.197 18.5044H56.6149C35.8394 18.5044 18.997 35.3468 18.997 56.1223V188.705C18.997 209.481 35.8394 226.323 56.6149 226.323H189.198C209.973 226.323 226.816 209.481 226.816 188.705V56.1223H226.815ZM218.924 188.705C218.924 205.123 205.615 218.431 189.197 218.431H56.6149C40.1977 218.431 26.8888 205.123 26.8888 188.705V56.1223C26.8888 39.7051 40.1977 26.3962 56.6149 26.3962H189.198C205.615 26.3962 218.924 39.7051 218.924 56.1223V188.705H218.924Z" fill="white"/>
</g>
<defs>
<clipPath id="clip0">
<rect width="244.647" height="244.647" fill="white" transform="translate(0.582489 0.0898438)"/>
</clipPath>
</defs>
</svg>
