<svg width="8" height="10" viewBox="0 0 8 10" fill="none" xmlns="http://www.w3.org/2000/svg">
<path d="M1.261 10V8.232H0.13V7.387H1.261V6.23H0.13V5.242H1.261V0.717999H3.705C4.84033 0.717999 5.681 0.947666 6.227 1.407C6.78167 1.86633 7.059 2.53367 7.059 3.409C7.059 4.293 6.76 4.98633 6.162 5.489C5.564 5.983 4.68433 6.23 3.523 6.23H2.431V7.387H4.576V8.232H2.431V10H1.261ZM3.354 5.242C4.14267 5.242 4.75367 5.112 5.187 4.852C5.629 4.592 5.85 4.124 5.85 3.448C5.85 2.85867 5.668 2.421 5.304 2.135C4.94 1.849 4.37233 1.706 3.601 1.706H2.431V5.242H3.354Z" fill="#333333"/>
</svg>
