<svg width="26" height="25" viewBox="0 0 26 25" fill="none" xmlns="http://www.w3.org/2000/svg">
<g clip-path="url(#clip0)">
<path d="M22.4371 3.55091C20.1471 1.26095 17.1032 0 13.8645 0C13.8643 0 13.8635 0 13.8633 0C12.2616 0.000190735 10.7006 0.310326 9.2241 0.922012C7.74743 1.5337 6.42449 2.41814 5.29172 3.55091C3.00195 5.84068 1.741 8.88519 1.741 12.1235C1.741 14.0547 2.20697 15.9739 3.08988 17.6838L1.05207 23.5054C0.908443 23.9161 1.0101 24.3624 1.31795 24.67C1.53329 24.8856 1.81672 25 2.10816 25C2.2331 25 2.35936 24.979 2.48258 24.9359L8.30419 22.8983C10.0141 23.7812 11.9333 24.2472 13.8645 24.2472C17.1028 24.2472 20.1471 22.986 22.4371 20.6963C24.7268 18.4065 25.988 15.362 25.988 12.1237C25.988 8.88519 24.727 5.84068 22.4371 3.55091ZM21.4002 19.6594C19.3874 21.6724 16.711 22.7808 13.8645 22.7808C12.1231 22.7808 10.3931 22.3501 8.86151 21.5349C8.5838 21.3873 8.25555 21.3619 7.96086 21.4651L2.67179 23.3162L4.52306 18.0271C4.62625 17.732 4.60069 17.4038 4.45306 17.1263C3.63805 15.5951 3.20718 13.8651 3.20718 12.1235C3.20718 9.27696 4.31573 6.60057 6.32856 4.58775C8.34119 2.57511 11.0172 1.46656 13.8635 1.46618H13.8645C16.7112 1.46618 19.3874 2.57473 21.4002 4.58775C23.4132 6.60057 24.5218 9.27677 24.5218 12.1235C24.5218 14.9702 23.4132 17.6466 21.4002 19.6594Z" fill="#929292"/>
<path d="M18.3701 13.2065C17.8124 12.6488 16.9049 12.6488 16.3472 13.2065L15.7372 13.8164C14.2226 12.9911 12.9969 11.7655 12.1714 10.2508L12.7814 9.64088C13.3393 9.08317 13.3393 8.17565 12.7814 7.61794L11.1376 5.97419C10.5799 5.41648 9.67238 5.41648 9.11468 5.97419L7.79975 7.28912C7.04654 8.04233 7.00896 9.33723 7.69389 10.9354C8.2886 12.323 9.37694 13.8481 10.7584 15.2296C12.1399 16.6111 13.665 17.6994 15.0526 18.2941C15.812 18.6195 16.5026 18.7818 17.0994 18.7818C17.7588 18.7818 18.3035 18.5837 18.6989 18.1883L20.0138 16.8732V16.8734C20.2841 16.6031 20.4329 16.2439 20.4329 15.8619C20.4329 15.4797 20.2841 15.1205 20.0138 14.8504L18.3701 13.2065ZM17.6621 17.1514C17.4471 17.3664 16.786 17.4417 15.6304 16.9466C14.41 16.4236 13.048 15.4455 11.7953 14.1928C10.5425 12.94 9.56462 11.5782 9.04162 10.3578C8.54629 9.20219 8.62163 8.54091 8.83658 8.32595L10.1263 7.0362L11.7194 8.62941L10.9558 9.39311C10.6106 9.73834 10.5273 10.2619 10.7487 10.696C11.7525 12.6644 13.3236 14.2355 15.292 15.2393C15.7263 15.4608 16.2499 15.3776 16.5951 15.0322L17.3586 14.2687L18.9518 15.8619L17.6621 17.1514Z" fill="#929292"/>
</g>
<defs>
<clipPath id="clip0">
<rect width="25" height="25" fill="white" transform="translate(0.988037)"/>
</clipPath>
</defs>
</svg>
