<svg width="175" height="55" fill="none" xmlns="http://www.w3.org/2000/svg"><g clip-path="url(#clip0)"><path d="M172.227 44.013V7.32l1.492-1.521a.902.902 0 000-1.26.862.862 0 00-1.236 0L170.99 6.06h-36.005l-1.492-1.521a.863.863 0 00-1.237 0 .902.902 0 000 1.26l1.493 1.521v36.693l-1.493 1.521a.902.902 0 000 1.26.865.865 0 001.237 0l1.492-1.521h36.005l1.493 1.521a.861.861 0 001.236 0 .902.902 0 000-1.26l-1.492-1.521zm-19.239-36.17h16.253l-4.54 4.626c-3.104-2.865-7.205-4.627-11.713-4.627-4.508 0-8.61 1.762-11.714 4.627l-4.54-4.627h16.254zm-1.237 17.823l-10.477 10.678a16.13 16.13 0 01-4.027-10.678 16.13 16.13 0 014.027-10.677l10.477 10.677zM142.51 13.73c2.787-2.543 6.452-4.104 10.478-4.104 4.025 0 7.691 1.561 10.477 4.104l-10.477 10.677L142.51 13.73zm10.478 13.198l10.477 10.677c-2.786 2.543-6.452 4.104-10.477 4.104-4.026 0-7.691-1.561-10.478-4.104l10.478-10.677zm1.236-1.26l10.478-10.678a16.13 16.13 0 014.027 10.677 16.13 16.13 0 01-4.027 10.678l-10.478-10.678zm-18.726 0V9.102l4.539 4.626a17.925 17.925 0 00-4.539 11.938c0 4.594 1.729 8.773 4.539 11.937l-4.539 4.626V25.667zm17.49 17.823h-16.254l4.54-4.626c3.104 2.865 7.206 4.627 11.714 4.627s8.609-1.762 11.713-4.627l4.54 4.627h-16.253zm17.489-17.824V42.23l-4.539-4.626a17.92 17.92 0 004.539-11.938 17.92 17.92 0 00-4.539-11.937l4.539-4.626v16.563z" fill="#188D95"/></g><g clip-path="url(#clip1)" fill="#188D95"><path d="M110.481 8.735l-1.135 6.24c-2.053.101-3.237.739-4.203 1.26-.917.494-1.642.885-3.235.885-1.592 0-2.317-.39-3.234-.885-1.052-.568-2.362-1.274-4.772-1.274s-3.72.706-4.772 1.274c-.917.494-1.642.885-3.234.885-1.593 0-2.317-.39-3.234-.885-1.053-.568-2.362-1.274-4.772-1.274s-3.72.706-4.771 1.274c-.918.495-1.642.885-3.234.885-1.593 0-2.318-.39-3.235-.885-.876-.473-1.933-1.042-3.655-1.218l-1.142-6.282-3.186.579 6.718 36.952h41.563l6.719-36.952-3.186-.58zm-6.236 34.292H68.088l-4.475-24.611c.557.161 1 .4 1.5.67 1.052.566 2.362 1.273 4.772 1.273s3.72-.707 4.771-1.274c.917-.495 1.641-.885 3.234-.885s2.317.39 3.234.885c1.052.567 2.362 1.274 4.772 1.274s3.72-.706 4.771-1.274c.918-.495 1.642-.885 3.235-.885s2.317.39 3.234.885c1.053.568 2.362 1.274 4.772 1.274 2.411 0 3.72-.706 4.772-1.274.656-.354 1.216-.654 2.063-.796l-4.498 24.738z"/><path d="M78.61 23.597h-5.936v3.238h5.936c.893 0 1.62.727 1.62 1.62 0 .892-.727 1.619-1.62 1.619h-3.238v3.238h3.239c.892 0 1.619.726 1.619 1.62 0 .892-.727 1.618-1.62 1.618h-5.936v3.239h5.936a4.863 4.863 0 004.858-4.858 4.84 4.84 0 00-1.24-3.238 4.838 4.838 0 001.24-3.239 4.863 4.863 0 00-4.858-4.857zm14.573 0a6.484 6.484 0 00-6.477 6.477v3.238a6.484 6.484 0 006.477 6.477 6.484 6.484 0 006.477-6.477v-3.238a6.484 6.484 0 00-6.477-6.477zm3.238 9.715a3.242 3.242 0 01-3.238 3.238 3.242 3.242 0 01-3.238-3.238v-3.238a3.242 3.242 0 013.238-3.239 3.242 3.242 0 013.238 3.239v3.238zm4.318-9.715h3.239v3.238h-3.239v-3.238z"/></g><g clip-path="url(#clip2)" fill="#188D95"><path d="M39.417 5.5H.917A.916.916 0 000 6.417v38.5c0 .506.41.916.917.916h38.5c.506 0 .916-.41.916-.916v-38.5a.916.916 0 00-.916-.917zM38.5 25.667V44H1.833V7.333H38.5v18.334z"/><path d="M20.167 7.333c-10.11 0-18.334 8.224-18.334 18.334C1.833 35.776 10.057 44 20.167 44S38.5 35.776 38.5 25.667c0-10.11-8.224-18.334-18.333-18.334zm0 34.834c-9.098 0-16.5-7.403-16.5-16.5 0-9.098 7.402-16.5 16.5-16.5 9.098 0 16.5 7.402 16.5 16.5 0 9.097-7.403 16.5-16.5 16.5z"/><path d="M16.5 27.5a1.833 1.833 0 100-3.667 1.833 1.833 0 000 3.667zm7.333 0a1.833 1.833 0 100-3.667 1.833 1.833 0 000 3.667z"/></g><defs><clipPath id="clip0"><path fill="#fff" transform="translate(132 4.278)" d="M0 0h42.778v42.778H0z"/></clipPath><clipPath id="clip1"><path fill="#fff" transform="translate(58.667)" d="M0 0h55v55H0z"/></clipPath><clipPath id="clip2"><path fill="#fff" transform="translate(0 5.5)" d="M0 0h40.333v40.333H0z"/></clipPath></defs></svg>