<svg width="574" height="343" fill="none" xmlns="http://www.w3.org/2000/svg"><path fill-rule="evenodd" clip-rule="evenodd" d="M30.152 341.828c3.794 0 7.864.096 12.208.287v-3.469a31.06 31.06 0 01-6.787-.741 1.869 1.869 0 01-.855-.868 29.53 29.53 0 01-.568-6.636l-.164-15.836 5.34-.124a36.821 36.821 0 017.928.539 1.49 1.49 0 011.015.702c.504 2.054.76 4.163.763 6.28h3.495c-.081-4.944-.122-8.547-.122-10.808 0-2.401.04-4.816.122-7.245h-3.514a19.321 19.321 0 01-.732 5.198 1.44 1.44 0 01-.935.667 51.88 51.88 0 01-7.477.291c-2.305 0-4.27-.042-5.895-.124l.042-1.904-.08-8.916c0-1.935.15-5.233.447-9.892a76.397 76.397 0 017.48-.388 41.803 41.803 0 017.38.496 7.11 7.11 0 013.005.969c.406.796.596 1.687.55 2.582l.324 4.419h3.434a91.958 91.958 0 011.056-12.16l-.408-.853a108.86 108.86 0 00-5.051-.112c-2.467 0-5.502.031-9.106.093-5.474.077-10.704.116-15.692.116-3.415 0-7.494-.07-12.234-.209v3.469a19.885 19.885 0 015.692.744c.323.199.567.506.69.869.533 3.41.764 6.862.69 10.315a741.76 741.76 0 01.203 16.746c0 7.03-.163 13.232-.489 18.607a4.369 4.369 0 01-.762 2.939c-1.92.725-3.98.99-6.017.775v3.469c6.666-.194 11.68-.289 15.039-.287h-.015zm108.587-2.748a27.177 27.177 0 0010.995-10.904 33.955 33.955 0 003.903-16.708 29.597 29.597 0 00-3.556-15.056 24.693 24.693 0 00-10.14-9.583 36.46 36.46 0 00-16.951-3.446 37.81 37.81 0 00-17.621 3.594 26.117 26.117 0 00-10.713 10.303 32.199 32.199 0 00-3.86 16.281 28.977 28.977 0 001.753 11.62 28.618 28.618 0 006.212 9.918c6.336 5.592 14.594 8.406 22.967 7.826a35.097 35.097 0 0017.026-3.845h-.015zm-26.095-3.307a19.403 19.403 0 01-6.726-8.846 37.867 37.867 0 01-2.644-14.986 28.487 28.487 0 014.819-18.185 16.676 16.676 0 016.117-4.572 16.432 16.432 0 017.48-1.339 16.587 16.587 0 017.604 1.173 16.835 16.835 0 016.298 4.486 31.867 31.867 0 015.569 20.158 29.818 29.818 0 01-4.856 18.665 15.902 15.902 0 01-5.791 4.655 15.645 15.645 0 01-7.237 1.486 18.907 18.907 0 01-10.637-2.695h.004zm89.218 6.055c3.762 0 8.078.096 12.949.287v-3.469a18.047 18.047 0 01-5.498-.744 1.835 1.835 0 01-.889-.869 40.463 40.463 0 01-.645-6.904c-.269-5.455-.404-9.933-.404-13.432l.343-15.463.268-12.191c2.09-.194 3.743-.291 4.959-.291a12.1 12.1 0 018.679 2.772 10.2 10.2 0 012.265 3.574 10.33 10.33 0 01.631 4.202 11.046 11.046 0 01-.816 4.859 10.884 10.884 0 01-2.843 3.995 11.476 11.476 0 01-7.439 3.101 21.682 21.682 0 01-2.4-.206 8.813 8.813 0 01-.61 1.485l8.374 12.928c4.687 7.272 8.21 12.821 10.567 16.646 1.979-.109 6.41-.192 13.292-.249l2.4-.038v-3.175a6.938 6.938 0 01-3.052-.558 12.401 12.401 0 01-2.846-2.993l-6.749-10.16-8.656-13.262a23.125 23.125 0 009.816-6.617 13.988 13.988 0 002.823-8.683 12.59 12.59 0 00-1.767-6.741 10.312 10.312 0 00-4.795-4.167 26.309 26.309 0 00-9.656-1.299l-20.365.291c-1.625 0-5.243-.097-10.853-.291v3.47c1.778.079 3.539.385 5.242.911.315.178.549.474.652.825.597 3.184.853 6.424.763 9.664.107 7.053.161 12.867.164 17.444 0 3.388-.067 8.028-.202 13.921a31.022 31.022 0 01-.569 6.69c-.117.33-.347.605-.648.776a24.153 24.153 0 01-5.406.775v3.469a303.7 303.7 0 0112.906-.286l.015.003zm154.368 0c4.069 0 8.086.096 12.052.287v-3.469c-2.143.1-4.288-.137-6.36-.702a3.39 3.39 0 01-1.08-2.64c-.269-2.638-.404-7.192-.404-13.66a20.332 20.332 0 01.648-6.4c.707-1.678 4.122-7.386 10.244-17.127a143.622 143.622 0 018.011-11.885v-2.05h-6.623c-4.959 9.267-8.957 16.512-11.994 21.735l-3.331 5.772c-3.769-7.706-6.874-13.605-9.316-17.696a48.807 48.807 0 00-5.722-8.241 13.195 13.195 0 00-3.583-2.439 180.207 180.207 0 01-13.352 2.853v3.26l1.953-.081a3.467 3.467 0 011.789.415 19.856 19.856 0 014.796 4.876c1.895 2.476 4.631 6.598 8.21 12.366a97.3 97.3 0 016.26 10.967c.481 2.291.66 4.638.53 6.977l-.042 3.016c-.19 5.094-.317 7.778-.381 8.052a2.454 2.454 0 01-.392 1.108 2.396 2.396 0 01-.859.791 15.425 15.425 0 01-5.78.744v3.47c5.341-.194 10.252-.29 14.734-.287l-.008-.012zm104.867-2.748a27.183 27.183 0 0010.995-10.904 33.955 33.955 0 003.903-16.708 29.597 29.597 0 00-3.556-15.056 24.69 24.69 0 00-10.144-9.583 36.452 36.452 0 00-16.95-3.446 37.827 37.827 0 00-17.622 3.594 26.118 26.118 0 00-10.712 10.303 32.228 32.228 0 00-3.861 16.281 28.966 28.966 0 001.755 11.621 28.602 28.602 0 006.215 9.917c6.335 5.592 14.593 8.406 22.966 7.826a35.097 35.097 0 0017.008-3.845h.003zm-26.098-3.307a19.408 19.408 0 01-6.726-8.846 37.831 37.831 0 01-2.644-14.986 28.486 28.486 0 014.818-18.185 16.688 16.688 0 016.118-4.572 16.428 16.428 0 017.479-1.339c2.59-.211 5.193.19 7.605 1.172a16.838 16.838 0 016.297 4.487 31.867 31.867 0 015.57 20.158 29.824 29.824 0 01-4.856 18.665 15.91 15.91 0 01-5.791 4.655 15.649 15.649 0 01-7.238 1.486 18.912 18.912 0 01-10.636-2.695h.004zm80.924-47.393c.416.191.764.508.996.907.451 1.239.659 2.556.61 3.876.138 6.086.205 9.872.202 11.358l-.202 18.607a21.802 21.802 0 002.289 11.091 16.703 16.703 0 007.684 6.257 32.63 32.63 0 0013.574 2.477c4.514.149 9.003-.74 13.131-2.602a16.856 16.856 0 007.561-6.628 23.252 23.252 0 002.724-9.726c.135-1.551.202-4.815.202-9.792.028-7.792.191-14.77.489-20.933a7.589 7.589 0 011.198-4.706 8.588 8.588 0 015.02-.911v-3.473c-3.71.193-6.84.29-9.388.29-2.956 0-6.181-.097-9.675-.29v3.469a19.115 19.115 0 015.936.911c.382.167.686.476.851.864a23.79 23.79 0 01.488 6.203l.042 15.281a72.943 72.943 0 01-1.179 16.812 10.633 10.633 0 01-4.635 6.028 18.756 18.756 0 01-9.999 2.19 18.984 18.984 0 01-8.863-2.105 9.76 9.76 0 01-4.269-4.524 23.198 23.198 0 01-1.461-9.52c0-5.259.041-10.436.122-15.529.107-7.327.242-11.76.404-13.3a4.069 4.069 0 01.611-1.939c.205-.32.504-.565.854-.701a14.742 14.742 0 015.284-.663v-3.477c-4.852.193-8.605.29-11.258.29-4.173 0-9.025-.097-14.554-.29v3.469c1.755.065 3.5.309 5.207.729h.004z" fill="#282828" fill-opacity=".24"/><g filter="url(#filter0_b)"><path fill-rule="evenodd" clip-rule="evenodd" d="M160.132 128.036a54.51 54.51 0 00-16.738-19.277 84.314 84.314 0 00-23.68-11.52 637.536 637.536 0 00-26.843-7.749 141.667 141.667 0 01-34.403-11.205 17.319 17.319 0 01-7.26-6.559 17.704 17.704 0 01-2.611-9.506 18.98 18.98 0 012.262-10.127 18.596 18.596 0 017.224-7.348 48.236 48.236 0 0124.607-5.564 53.848 53.848 0 0126.069 5.936c8.124 4.78 14.92 11.58 19.747 19.761l33.186-26.328C146.366 12.85 120.241 0 83.32 0 57.81 0 38.219 5.772 24.542 17.316 10.866 28.86 4.022 44.92 4.01 65.494a57.311 57.311 0 006.172 28.053 53.864 53.864 0 0016.894 18.49 94.705 94.705 0 0025.454 11.989c9.821 3.081 20.286 6.137 31.393 9.167a136.832 136.832 0 0124.066 8.071 28.09 28.09 0 0110.414 8.385 20.24 20.24 0 013.471 12.066 20.907 20.907 0 01-2.374 10.857 20.496 20.496 0 01-7.578 8.028 52.333 52.333 0 01-27.693 6.2 67.45 67.45 0 01-20.98-2.976 49.266 49.266 0 01-15.735-8.307 76.542 76.542 0 01-14.037-15.983L0 185.548c8.007 13.548 19.867 24.312 34.018 30.874a117.626 117.626 0 0049.29 9.559c27.358 0 48.057-5.798 62.096-17.394 14.04-11.595 21.06-28.257 21.06-49.983a64.918 64.918 0 00-6.332-30.568zm213.993 93.381V4.533h-42.723v146.209L259.023 4.533h-56.455v216.884h42.562V66.428l77.755 154.989h51.24zm193.303-93.381a54.483 54.483 0 00-16.738-19.277 84.322 84.322 0 00-23.681-11.52 637.374 637.374 0 00-26.842-7.749 141.665 141.665 0 01-34.403-11.205 17.325 17.325 0 01-7.263-6.558 17.707 17.707 0 01-2.613-9.507 18.98 18.98 0 012.264-10.128 18.587 18.587 0 017.227-7.347 48.227 48.227 0 0124.603-5.564 53.845 53.845 0 0126.076 5.956c8.124 4.78 14.918 11.58 19.744 19.76l33.186-26.328c-15.327-25.7-41.451-38.55-78.373-38.55-25.506 0-45.098 5.772-58.777 17.317-13.679 11.544-20.528 27.596-20.549 48.158a57.307 57.307 0 006.172 28.053 53.87 53.87 0 0016.891 18.49 94.734 94.734 0 0025.457 11.989c9.819 3.081 20.283 6.137 31.394 9.167a136.72 136.72 0 0124.065 8.071 28.055 28.055 0 0110.414 8.385 20.224 20.224 0 013.471 12.066 20.898 20.898 0 01-2.373 10.857 20.488 20.488 0 01-7.575 8.028 52.332 52.332 0 01-27.693 6.2 67.394 67.394 0 01-20.98-2.976 49.248 49.248 0 01-15.738-8.307 76.582 76.582 0 01-14.038-15.983l-33.48 26.014c8.008 13.547 19.868 24.311 34.018 30.874a117.643 117.643 0 0049.291 9.559c27.357 0 48.056-5.798 62.096-17.394 14.04-11.595 21.06-28.257 21.06-49.983a64.88 64.88 0 00-6.329-30.568h.016z" fill="#282828" fill-opacity=".47"/></g><defs><filter id="filter0_b" x="-10" y="-10" width="593.789" height="246.014" filterUnits="userSpaceOnUse" color-interpolation-filters="sRGB"><feFlood flood-opacity="0" result="BackgroundImageFix"/><feGaussianBlur in="BackgroundImage" stdDeviation="5"/><feComposite in2="SourceAlpha" operator="in" result="effect1_backgroundBlur"/><feBlend in="SourceGraphic" in2="effect1_backgroundBlur" result="shape"/></filter></defs></svg>