<svg height="572pt" viewBox="-18 -18 572.009 572" width="572pt" xmlns="http://www.w3.org/2000/svg"><path d="M268.156-.074C159.7-.094 61.914 65.234 20.41 165.438-21.086 265.644 1.867 380.98 78.582 457.647c104.703 104.704 274.453 104.704 379.152 0 104.7-104.695 104.7-274.445 0-379.148A266.44 266.44 0 00268.156-.074zm0 511.355c-134.074 0-243.203-109.133-243.203-243.207S134.082 24.871 268.156 24.871 511.363 134 511.363 268.074 402.23 511.281 268.156 511.281zm0 0"/><path d="M395.621 185.637L234.61 339.539l-87.804-87.68c-4.856-4.855-12.727-4.855-17.586 0-4.856 4.86-4.856 12.73 0 17.59l96.41 96.41a12.27 12.27 0 008.855 3.614 12.067 12.067 0 008.606-3.493l169.742-162.257c4.922-4.77 5.082-12.614.363-17.578-4.726-4.961-12.566-5.188-17.574-.508zm0 0"/></svg>