<svg xmlns="http://www.w3.org/2000/svg" viewBox="0 0 469.333 469.333"><path d="M458.667 0h-448A10.66 10.66 0 000 10.667v448a10.66 10.66 0 0010.667 10.667h448a10.66 10.66 0 0010.667-10.667v-448A10.662 10.662 0 00458.667 0zM448 234.667V448H21.333V21.333H448v213.334z"/><path d="M234.667 21.333c-117.635 0-213.333 95.698-213.333 213.333S117.031 448 234.667 448 448 352.302 448 234.667 352.302 21.333 234.667 21.333zm0 405.334c-105.865 0-192-86.135-192-192s86.135-192 192-192 192 86.135 192 192-86.136 192-192 192z"/><circle cx="192" cy="234.667" r="21.333"/><circle cx="277.333" cy="234.667" r="21.333"/></svg>