<svg xmlns="http://www.w3.org/2000/svg" viewBox="0 0 512 512"><path d="M490.667 475.583V36.417l18.208-18.208c4.167-4.167 4.167-10.917 0-15.083-4.167-4.167-10.917-4.167-15.083 0l-18.208 18.208H36.417L18.208 3.125c-4.167-4.167-10.917-4.167-15.083 0s-4.167 10.917 0 15.083l18.208 18.208v439.167L3.125 493.792c-4.167 4.167-4.167 10.917 0 15.083A10.634 10.634 0 0010.667 512c2.729 0 5.458-1.042 7.542-3.125l18.208-18.208h439.167l18.208 18.208a10.634 10.634 0 007.542 3.125c2.729 0 5.458-1.042 7.542-3.125 4.167-4.167 4.167-10.917 0-15.083l-18.209-18.209zM256 42.667h198.25l-55.371 55.371C361.012 63.754 310.986 42.667 256 42.667S150.988 63.754 113.121 98.038L57.75 42.667H256zM240.917 256L113.118 383.798C82.686 349.811 64 305.1 64 256s18.686-93.811 49.118-127.798L240.917 256zM128.202 113.118C162.189 82.686 206.9 64 256 64s93.811 18.686 127.798 49.118L256 240.917 128.202 113.118zM256 271.083l127.798 127.798C349.811 429.314 305.1 448 256 448s-93.811-18.686-127.798-49.118L256 271.083zM271.083 256l127.798-127.798C429.314 162.189 448 206.9 448 256s-18.686 93.811-49.118 127.798L271.083 256zm-228.416 0V57.75l55.371 55.371C63.754 150.988 42.667 201.014 42.667 256s21.087 105.012 55.371 142.879L42.667 454.25V256zM256 469.333H57.75l55.371-55.371c37.867 34.284 87.893 55.371 142.879 55.371s105.012-21.087 142.879-55.371l55.371 55.371H256zM469.333 256v198.25l-55.371-55.371c34.284-37.867 55.371-87.893 55.371-142.879s-21.087-105.012-55.371-142.879l55.371-55.371V256z"/></svg>