<svg width="246" height="245" fill="none" xmlns="http://www.w3.org/2000/svg"><g clip-path="url(#clip0)"><path d="M55.825 244.211H84.96l-45.97-29.463-37.787-22.08c1.65 28.7 25.517 51.543 54.622 51.543z" fill="#FDE494"/><path d="M161.05 227.375l-32.902-8.418H55.826c-16.246 0-29.463-13.217-29.463-29.462v-16.152l-12.627-13.551-12.627 2.233v27.47a55.9 55.9 0 00.094 3.174l83.757 51.543h99.539l-23.449-16.837z" fill="#FEA150"/><path d="M211.689 209.948c-5.361 5.549-12.87 9.009-21.176 9.009h-62.365l56.351 25.255h6.014c19.645 0 36.902-10.409 46.555-25.999l-12.885-7.673-12.494-.592z" fill="#FF5D4A"/><path d="M219.976 155.533v33.961c0 7.94-3.163 15.151-8.287 20.454l25.379 8.265a54.387 54.387 0 008.162-28.719v-29.945l-13.063-7.339-12.191 3.323z" fill="#E45261"/><path d="M245.23 71.223l-13.447-3.201-11.807 7.069v80.442l25.254 4.016V71.223z" fill="#FF4D95"/><path d="M245.23 54.807c0-27.48-20.363-50.29-46.791-54.141l-33.106 13.776-16.776 10.902h41.956c16.246 0 29.463 13.217 29.463 29.463V75.09l25.254-3.867V54.807z" fill="#CB319C"/><path d="M152.603.09l-31.317 11.746-24.7 13.508h51.972L198.439.666a54.906 54.906 0 00-7.926-.576h-37.91z" fill="#8A3293"/><path d="M123.169 193.703a71.22 71.22 0 0024.902-4.472l-41.014-18.618-43.474-8.895c12.834 19.265 34.75 31.985 59.586 31.985z" fill="#FF5D4A"/><path d="M158.048 145.685c-7.573 11.187-20.382 18.555-34.879 18.555-19.202 0-35.43-12.93-40.465-30.537l-11.291-7.057-19.476 2.164a71.112 71.112 0 0011.645 32.908l84.488 27.513c18.263-6.801 33.012-20.863 40.746-38.653l-15.14-7.669-15.628 2.776z" fill="#E45261"/><path d="M81.08 122.15c0-10.431 3.822-19.981 10.13-27.343l-17.955-2.512-18.238 8.054a71.275 71.275 0 00-3.4 21.801c0 2.246.116 4.465.32 6.659l30.767 4.892a41.934 41.934 0 01-1.624-11.551zm113.642 0c0-15.323-4.844-29.536-13.078-41.19l-17.831-2.531-18.317 8.066c11.859 7.453 19.763 20.645 19.763 35.656a41.85 41.85 0 01-7.21 23.534l30.768 4.892a71.11 71.11 0 005.905-28.427z" fill="#FF4D95"/><path d="M123.169 80.06c8.199 0 15.85 2.364 22.327 6.435l36.148-5.535c-12.966-18.354-34.343-30.363-58.475-30.363-31.855 0-58.91 20.926-68.152 49.752l36.193-5.542c7.725-9.017 19.182-14.747 31.959-14.747zm67.344-8.418c9.283 0 16.836-7.552 16.836-16.835 0-9.284-7.553-16.836-16.836-16.836-9.283 0-16.836 7.553-16.836 16.836 0 9.283 7.553 16.835 16.836 16.835z" fill="#CB319C"/><path d="M26.363 149.597l-12.157-6.063-13.097-2.161v20.652l25.254 11.317v-23.745z" fill="#FF5D4A"/><path d="M1.109 120.727v20.646l25.254 8.224v-24.855l-13.122-4.717-12.132.702z" fill="#E45261"/><path d="M26.363 104.737l-12.977-.117-12.277 3.984v12.123l25.254 4.015v-20.005z" fill="#FF4D95"/><path d="M26.363 85.798l-13.377 1.357L1.11 98.292v10.312l25.254-3.867V85.798z" fill="#CB319C"/><path d="M1.109 98.292l25.254-12.494V57.002L11.55 58.418l-10.44 9.97v29.904z" fill="#8A3293"/><path d="M98.88.09L41.258 22.252 1.77 46.305a54.936 54.936 0 00-.661 8.502v13.58l25.254-11.385v-2.195c0-16.246 13.217-29.463 29.462-29.463h40.761L152.603.09H98.88z" fill="#523494"/><path d="M55.825.09C28.545.09 5.866 20.157 1.77 46.305L98.88.09H55.826z" fill="#2D2D87"/><path d="M123.169 47.967c-40.904 0-74.183 33.278-74.183 74.184 0 13.041 3.432 25.868 9.927 37.094a3.946 3.946 0 006.832-3.951c-5.8-10.027-8.867-21.488-8.867-33.143 0-36.554 29.738-66.292 66.291-66.292 36.554 0 66.292 29.738 66.292 66.292 0 36.553-29.738 66.291-66.292 66.291-18.392 0-35.488-7.357-48.14-20.716a3.946 3.946 0 10-5.73 5.427c14.158 14.948 33.289 23.181 53.87 23.181 40.905 0 74.184-33.279 74.184-74.184 0-40.905-33.279-74.183-74.184-74.183z" fill="#fff"/><path d="M123.169 170.028c26.4 0 47.878-21.478 47.878-47.878s-21.478-47.877-47.878-47.877c-26.399 0-47.877 21.478-47.877 47.877 0 26.4 21.477 47.878 47.877 47.878zm0-87.863c22.049 0 39.986 17.937 39.986 39.986 0 22.048-17.937 39.985-39.986 39.985-22.048 0-39.985-17.937-39.985-39.985 0-22.049 17.937-39.986 39.985-39.986zm67.344-44.721c-9.573 0-17.362 7.789-17.362 17.362 0 9.573 7.789 17.362 17.362 17.362 9.573 0 17.362-7.789 17.362-17.362 0-9.573-7.789-17.362-17.362-17.362zm0 26.833c-5.222 0-9.47-4.249-9.47-9.47 0-5.222 4.248-9.47 9.47-9.47s9.47 4.248 9.47 9.47c0 5.221-4.248 9.47-9.47 9.47z" fill="#fff"/><path d="M245.23 54.544C245.23 24.47 220.85.09 190.776.09H55.036C24.963.09.582 24.47.582 54.543v135.74c0 30.074 24.38 54.454 54.454 54.454h135.74c30.074 0 54.454-24.38 54.454-54.453V54.544zm-7.892 135.74c0 25.715-20.847 46.561-46.562 46.561H55.036c-25.715 0-46.562-20.846-46.562-46.561V54.544c0-25.716 20.847-46.562 46.562-46.562h135.74c25.715 0 46.562 20.846 46.562 46.562v135.74z" fill="#fff"/><path d="M226.815 56.122c0-20.775-16.842-37.618-37.618-37.618H56.615c-20.776 0-37.618 16.843-37.618 37.618v132.583c0 20.776 16.842 37.618 37.618 37.618h132.583c20.775 0 37.618-16.842 37.618-37.618V56.122h-.001zm-7.891 132.583c0 16.418-13.309 29.726-29.727 29.726H56.615c-16.417 0-29.726-13.308-29.726-29.726V56.122c0-16.417 13.309-29.726 29.726-29.726h132.583c16.417 0 29.726 13.31 29.726 29.726v132.583z" fill="#fff"/></g><defs><clipPath id="clip0"><path fill="#fff" transform="translate(.582 .09)" d="M0 0h244.647v244.647H0z"/></clipPath></defs></svg>