<svg width="26" height="25" fill="none" xmlns="http://www.w3.org/2000/svg"><g clip-path="url(#clip0)" fill="#929292"><path d="M19.22 0H7.756A6.775 6.775 0 00.988 6.767v11.466A6.775 6.775 0 007.755 25h11.466a6.775 6.775 0 006.767-6.767V6.767A6.775 6.775 0 0019.221 0zm5.302 18.233a5.308 5.308 0 01-5.301 5.301H7.755a5.308 5.308 0 01-5.301-5.301V6.767a5.308 5.308 0 015.301-5.301h11.466a5.308 5.308 0 015.301 5.301v11.466z"/><path d="M13.488 5.664A6.843 6.843 0 006.652 12.5a6.843 6.843 0 006.836 6.836 6.843 6.843 0 006.836-6.836 6.843 6.843 0 00-6.836-6.836zm0 12.206a5.376 5.376 0 01-5.37-5.37c0-2.961 2.41-5.37 5.37-5.37a5.376 5.376 0 015.37 5.37 5.376 5.376 0 01-5.37 5.37zm6.999-14.633c-1.114 0-2.02.906-2.02 2.02 0 1.113.906 2.02 2.02 2.02 1.114 0 2.02-.907 2.02-2.02 0-1.114-.906-2.02-2.02-2.02zm0 2.574a.555.555 0 11.002-1.11.555.555 0 01-.002 1.11z"/></g><defs><clipPath id="clip0"><path fill="#fff" transform="translate(.988)" d="M0 0h25v25H0z"/></clipPath></defs></svg>