<svg height="475pt" viewBox="-59 0 475 475.837" width="475pt" xmlns="http://www.w3.org/2000/svg"><path d="M288.16 227.79c0-17.88 13.527-32.368 30.219-32.368h.672c16.656 0 30.18 14.43 30.219 32.277.14 58.39.05 64.121-.032 151.332-.05 48.969-37.12 88.63-82.828 88.63h-98.14c-30.032 0-57.72-17.423-72.352-45.52l-87.5-168.11 9.14-7.582c18.93-17.398 47.399-15.258 63.872 4.79l24.488 29.812.14-205.09c.012-17.871 13.54-32.352 30.22-32.352h.011c16.691 0 30.219 14.5 30.219 32.38v124.12c.402-17.5 13.77-31.53 30.199-31.53h.711c16.691 0 30.223 14.491 30.223 32.37v10.422c0-17.883 13.527-32.371 30.226-32.371h.07c16.692 0 30.223 14.488 30.223 32.371zm0 0" fill="#f7caa5"/><g fill="#083863"><path d="M319.05 187.828h-.671a36.696 36.696 0 00-24.719 9.414c-5.488-15.203-19.441-26.14-35.793-26.14a37.143 37.143 0 00-26.543 11.43c-6.379-12.927-19.176-21.704-33.906-21.704h-.711a35.065 35.065 0 00-21.828 7.156V75.988c0-22.261-17.332-40.379-38.414-40.379-21.063 0-38.3 18.102-38.313 40.344L97.98 258.73l-10.347-12.566a52.175 52.175 0 00-36.86-19.355 51.34 51.34 0 00-38.468 13.609l-8.993 7.457a8 8 0 00-1.992 9.852l87.5 168.199c16 30.734 46.446 49.91 79.446 49.91h98.14c50.031 0 90.778-43.43 90.832-96.707.024-24.152.043-42.102.063-56.602.05-38.25.066-52.382-.035-94.613-.047-22.207-17.192-40.086-38.215-40.086zm22.255 134.633c-.02 14.5-.043 32.492-.067 56.644-.047 44.465-33.613 80.723-74.828 80.723h-98.14c-27.016 0-52.02-15.875-65.254-41.297L18.496 256.11l4.168-3.48c.102-.086.207-.188.309-.277a35.494 35.494 0 0126.672-9.579 36.299 36.299 0 0125.601 13.547l24.488 29.809a8 8 0 0014.184-5.074l.14-205.09c.008-13.43 10.16-24.356 22.415-24.356s22.406 10.938 22.406 24.38v124.05c0 .3-.02.598-.02.902 0 .13.02.258.02.387v53.05a8 8 0 0016 0V200.25c0-13.055 9.898-23.422 21.828-23.422h.711c12.254 0 22.46 10.684 22.46 24.121v48.38a8 8 0 008 8c4.419 0 8-3.579 8-8V211.37c0-13.437 9.712-24.371 22.04-24.371 12.254 0 21.96 10.934 21.96 24.371v35.809a8 8 0 0016 0v-19.39c0-13.438 10.247-23.962 22.5-23.962h.673c12.219 0 22.187 10.695 22.219 24.098.101 42.203.082 56.304.035 94.535zm0 0"/><path d="M72.738 79.441a8 8 0 008-8c0-30.62 24.82-55.441 55.442-55.441 30.617 0 55.437 24.82 55.437 55.441a8 8 0 0016 0C207.617 31.984 175.633 0 136.18 0 96.723 0 64.738 31.984 64.738 71.441a8 8 0 008 8zm0 0"/></g></svg>