<svg width="62" height="52" viewBox="0 0 62 52" fill="none" xmlns="http://www.w3.org/2000/svg">
<path fill-rule="evenodd" clip-rule="evenodd" d="M8.01103 43.5487C8.34258 43.5487 8.69814 43.557 9.07769 43.5737V43.2715C8.87831 43.2717 8.67948 43.2501 8.48469 43.207C8.45216 43.1909 8.42588 43.1643 8.41003 43.1313C8.37166 42.9412 8.355 42.7472 8.36036 42.5532L8.34603 41.1739L8.81269 41.1631C9.04457 41.1538 9.27677 41.1695 9.50536 41.21C9.5236 41.2132 9.54096 41.2203 9.55626 41.2308C9.57156 41.2414 9.58444 41.2551 9.59403 41.2711C9.63803 41.4501 9.66042 41.6338 9.66069 41.8182H9.96603C9.95892 41.3875 9.95536 41.0737 9.95536 40.8768C9.95536 40.6676 9.95892 40.4573 9.96603 40.2457H9.65903C9.65844 40.3989 9.63691 40.5513 9.59503 40.6985C9.5861 40.7133 9.57423 40.7261 9.56018 40.7361C9.54613 40.7461 9.53019 40.7531 9.51336 40.7565C9.29645 40.7807 9.07812 40.7892 8.86003 40.7819C8.65869 40.7819 8.48703 40.7783 8.34503 40.7711L8.34869 40.6053L8.34169 39.8286C8.34169 39.66 8.35469 39.3728 8.38069 38.9669C8.61025 38.9444 8.82814 38.9332 9.03436 38.9332C9.25008 38.9285 9.46579 38.943 9.67903 38.9764C9.77168 38.9844 9.86141 39.0133 9.94169 39.0608C9.97715 39.1301 9.99372 39.2077 9.98969 39.2857L10.018 39.6706H10.318C10.3252 39.3158 10.3561 38.962 10.4104 38.6114L10.3747 38.5371C10.2338 38.5306 10.0867 38.5273 9.93336 38.5273C9.7178 38.5273 9.45258 38.53 9.13769 38.5354C8.65947 38.5422 8.20247 38.5455 7.76669 38.5455C7.46825 38.5455 7.11192 38.5395 6.69769 38.5273V38.8295C6.86568 38.827 7.03315 38.8488 7.19503 38.8943C7.22327 38.9116 7.24463 38.9384 7.25536 38.97C7.30193 39.2671 7.32212 39.5678 7.31569 39.8685C7.32747 40.3874 7.33336 40.8736 7.33336 41.3272C7.33336 41.9395 7.31914 42.4798 7.29069 42.948C7.29985 43.0387 7.27616 43.1296 7.22403 43.2039C7.05626 43.2671 6.87638 43.2902 6.69836 43.2715V43.5737C7.2808 43.5568 7.7188 43.5484 8.01236 43.5487H8.01103ZM17.4987 43.3093C17.903 43.0937 18.2368 42.7637 18.4594 42.3594C18.6959 41.9125 18.8134 41.411 18.8004 40.9041C18.8151 40.4466 18.7078 39.9935 18.4897 39.5926C18.2796 39.234 17.972 38.9442 17.6037 38.7579C17.1404 38.5406 16.6328 38.4378 16.1227 38.4577C15.5922 38.437 15.0645 38.5443 14.583 38.7708C14.1919 38.9719 13.8667 39.2836 13.647 39.6683C13.4115 40.1019 13.295 40.5917 13.3097 41.0864C13.2909 41.4309 13.3431 41.7756 13.4629 42.0986C13.5827 42.4216 13.7676 42.7158 14.0057 42.9625C14.5593 43.4496 15.2808 43.6947 16.0124 43.6442C16.528 43.6594 17.0393 43.5443 17.5 43.3093H17.4987ZM15.2187 43.0212C14.9526 42.8282 14.7482 42.5603 14.631 42.2507C14.4663 41.8363 14.3877 41.3919 14.4 40.9453C14.3567 40.384 14.5053 39.8247 14.821 39.3613C14.9666 39.1887 15.1495 39.0524 15.3555 38.963C15.5616 38.8737 15.7852 38.8338 16.009 38.8464C16.2353 38.828 16.4627 38.863 16.6735 38.9485C16.8842 39.0341 17.0725 39.1678 17.2237 39.3394C17.5789 39.8513 17.7506 40.4708 17.7104 41.0952C17.7532 41.6701 17.6037 42.2428 17.286 42.7211C17.1512 42.8947 16.9779 43.0336 16.7801 43.1265C16.5823 43.2195 16.3656 43.2638 16.1477 43.2559C15.822 43.2712 15.4989 43.1896 15.2184 43.0212H15.2187ZM23.014 43.5487C23.3427 43.5487 23.7198 43.557 24.1454 43.5737V43.2715C23.9829 43.2747 23.8209 43.2529 23.665 43.2066C23.6312 43.1913 23.6038 43.1646 23.5874 43.131C23.5513 42.9326 23.5325 42.7314 23.531 42.5296C23.5075 42.0544 23.4957 41.6644 23.4957 41.3596L23.5257 40.0127L23.549 38.9507C23.7317 38.9338 23.8761 38.9254 23.9824 38.9254C24.2564 38.9041 24.528 38.9906 24.7407 39.1668C24.8275 39.2553 24.895 39.3614 24.9386 39.4781C24.9822 39.5949 25.001 39.7196 24.9937 39.8442C25.0022 39.9889 24.9778 40.1337 24.9224 40.2674C24.867 40.4011 24.782 40.5202 24.674 40.6154C24.4962 40.7813 24.2656 40.8771 24.024 40.8855C23.9539 40.8835 23.8839 40.8775 23.8144 40.8676C23.8005 40.9123 23.7827 40.9556 23.761 40.997L24.4927 42.1231C24.9022 42.7565 25.21 43.2398 25.416 43.573C25.5889 43.5635 25.976 43.5563 26.5774 43.5514L26.787 43.548V43.2715C26.6957 43.2756 26.6046 43.259 26.5204 43.2228C26.4237 43.1506 26.3396 43.0625 26.2717 42.9622L25.682 42.0771L24.9257 40.922C25.2559 40.808 25.5513 40.6094 25.7834 40.3456C25.9478 40.1291 26.0348 39.8624 26.03 39.5892C26.035 39.3826 25.9814 39.1788 25.8757 39.002C25.7771 38.8395 25.6305 38.7125 25.4567 38.6391C25.1847 38.5493 24.8987 38.5109 24.613 38.5259L22.8337 38.5513C22.6917 38.5513 22.3756 38.5428 21.8854 38.5259V38.8282C22.0407 38.835 22.1946 38.8617 22.3434 38.9075C22.3709 38.923 22.3914 38.9488 22.4004 38.9794C22.4525 39.2568 22.4749 39.539 22.467 39.8212C22.4764 40.4355 22.4811 40.942 22.4814 41.3407C22.4814 41.6358 22.4755 42.04 22.4637 42.5532C22.4683 42.7488 22.4517 42.9442 22.414 43.1361C22.4038 43.1648 22.3837 43.1887 22.3574 43.2036C22.2029 43.2438 22.0445 43.2665 21.885 43.2711V43.5733C22.287 43.5564 22.6629 43.5481 23.0127 43.5483L23.014 43.5487ZM36.5017 43.5487C36.8572 43.5487 37.2082 43.557 37.5547 43.5737V43.2715C37.3675 43.2801 37.18 43.2595 36.999 43.2103C36.9675 43.1815 36.9427 43.1458 36.9264 43.1061C36.9101 43.0663 36.9027 43.0234 36.9047 42.9804C36.8811 42.7506 36.8694 42.3539 36.8694 41.7905C36.8585 41.6028 36.8776 41.4145 36.926 41.233C36.9878 41.0869 37.2861 40.5896 37.821 39.7412C38.0371 39.3844 38.2707 39.0389 38.521 38.7059V38.5273H37.9424C37.509 39.3345 37.1597 39.9656 36.8944 40.4206L36.6034 40.9234C36.274 40.2521 36.0027 39.7383 35.7894 39.3819C35.6476 39.1258 35.4801 38.8852 35.2894 38.664C35.1972 38.5764 35.0915 38.5046 34.9764 38.4517C34.5917 38.5489 34.2028 38.6317 33.8097 38.7002V38.9842L33.9804 38.9771C34.0347 38.9748 34.0887 38.9873 34.1367 39.0132C34.2996 39.1292 34.4413 39.2729 34.5557 39.438C34.7212 39.6536 34.9604 40.0127 35.273 40.5151C35.4758 40.8211 35.6585 41.1402 35.82 41.4704C35.8621 41.67 35.8777 41.8744 35.8664 42.0782L35.8627 42.3409C35.846 42.7845 35.8349 43.0183 35.8294 43.0422C35.8259 43.0767 35.8142 43.1099 35.7951 43.1387C35.776 43.1676 35.7502 43.1913 35.72 43.2076C35.5572 43.2611 35.3859 43.283 35.215 43.2725V43.5747C35.6817 43.5578 36.1108 43.5495 36.5024 43.5497L36.5017 43.5487ZM45.6644 43.3093C46.0687 43.0936 46.4024 42.7637 46.625 42.3594C46.8615 41.9126 46.9791 41.411 46.966 40.9041C46.9808 40.4466 46.8734 39.9935 46.6554 39.5926C46.4452 39.2339 46.1375 38.9442 45.769 38.7579C45.3057 38.5407 44.7982 38.4378 44.288 38.4577C43.7576 38.4371 43.2299 38.5443 42.7484 38.7708C42.3572 38.9719 42.0321 39.2836 41.8124 39.6683C41.5769 40.102 41.4604 40.5917 41.475 41.0864C41.4562 41.431 41.5084 41.7757 41.6283 42.0987C41.7482 42.4217 41.9331 42.7158 42.1714 42.9625C42.7249 43.4496 43.4465 43.6947 44.178 43.6442C44.6931 43.6591 45.2038 43.544 45.664 43.3093H45.6644ZM43.384 43.0212C43.1179 42.8282 42.9136 42.5603 42.7964 42.2507C42.6316 41.8363 42.553 41.3919 42.5654 40.9453C42.5219 40.384 42.6706 39.8247 42.9864 39.3613C43.1319 39.1887 43.3148 39.0524 43.5209 38.963C43.7269 38.8737 43.9506 38.8338 44.1744 38.8464C44.4007 38.828 44.6281 38.863 44.8388 38.9485C45.0495 39.034 45.2379 39.1678 45.389 39.3394C45.7442 39.8513 45.9159 40.4708 45.8757 41.0952C45.9185 41.6701 45.7691 42.2428 45.4514 42.7211C45.3165 42.8947 45.1432 43.0336 44.9454 43.1265C44.7476 43.2194 44.5309 43.2638 44.313 43.2559C43.9873 43.2711 43.6643 43.1895 43.3837 43.0212H43.384ZM50.4547 38.893C50.491 38.9096 50.5214 38.9372 50.5417 38.972C50.5811 39.0799 50.5993 39.1947 50.595 39.3097C50.607 39.8398 50.6129 40.1696 50.6127 40.299L50.595 41.9198C50.5752 42.2541 50.6443 42.5877 50.795 42.8858C50.9594 43.1319 51.1935 43.3219 51.4664 43.4308C51.8423 43.5864 52.2465 43.6599 52.6524 43.6466C53.0468 43.6596 53.439 43.5822 53.7997 43.42C54.0726 43.2999 54.3031 43.0985 54.4604 42.8426C54.6008 42.5816 54.6821 42.2922 54.6984 41.9954C54.7101 41.8604 54.716 41.5761 54.716 41.1425C54.7185 40.4638 54.7327 39.856 54.7587 39.3191C54.7477 39.1745 54.7845 39.0303 54.8634 38.9092C54.9985 38.839 55.1513 38.8114 55.302 38.8298V38.5273C54.9778 38.5442 54.7044 38.5526 54.4817 38.5526C54.2235 38.5526 53.9417 38.5442 53.6364 38.5273V38.8295C53.8123 38.8285 53.9873 38.8553 54.155 38.9089C54.1884 38.9234 54.215 38.9503 54.2294 38.9842C54.2673 39.1615 54.2816 39.3432 54.272 39.5244L54.2757 40.8555C54.2982 41.346 54.2637 41.8376 54.1727 42.3199C54.1065 42.5397 53.9622 42.7268 53.7677 42.845C53.4991 42.9882 53.197 43.0542 52.894 43.0358C52.6252 43.0383 52.3596 42.9754 52.1197 42.8524C51.9562 42.7658 51.8252 42.6274 51.7467 42.4584C51.6465 42.1943 51.603 41.9115 51.619 41.6291C51.619 41.171 51.6226 40.7201 51.6297 40.2764C51.639 39.6382 51.6508 39.252 51.665 39.1179C51.6682 39.0579 51.6866 38.9997 51.7184 38.949C51.7362 38.9212 51.7624 38.8998 51.793 38.8879C51.9423 38.8409 52.0986 38.8214 52.2547 38.8302V38.5273C51.8307 38.5442 51.5028 38.5526 51.271 38.5526C50.9064 38.5526 50.4825 38.5442 49.9994 38.5273V38.8295C50.1527 38.8352 50.3052 38.8565 50.4544 38.893H50.4547Z" fill="#513021"/>
<path fill-rule="evenodd" clip-rule="evenodd" d="M19.3723 18.6392C19.0232 17.9696 18.5218 17.3938 17.9096 16.9593C17.2754 16.518 16.5773 16.1793 15.8403 15.9554C15.0672 15.7143 14.2853 15.4892 13.4946 15.2801C12.4559 15.0844 11.4457 14.7563 10.4883 14.3036C10.2271 14.1787 10.0068 13.9803 9.85386 13.732C9.70089 13.4838 9.62167 13.1962 9.62563 12.9036C9.60815 12.5965 9.67669 12.2905 9.82336 12.0211C9.97003 11.7517 10.1889 11.5297 10.4546 11.3808C11.1172 11.0314 11.8587 10.8642 12.605 10.8959C13.3949 10.8744 14.1777 11.0521 14.883 11.4132C15.593 11.8298 16.1868 12.4224 16.6086 13.1353L19.5086 10.8408C18.1693 8.60125 15.8864 7.48145 12.66 7.48145C10.4309 7.48145 8.71875 7.98445 7.52363 8.99046C6.32852 9.99647 5.73041 11.396 5.7293 13.189C5.69829 14.0373 5.88407 14.8794 6.26863 15.6336C6.62877 16.2809 7.13459 16.833 7.74497 17.245C8.43151 17.7024 9.18106 18.0544 9.9693 18.2897C10.8275 18.5582 11.742 18.8245 12.7126 19.0886C13.4334 19.2573 14.1374 19.4928 14.8156 19.7919C15.1724 19.958 15.4846 20.2087 15.7256 20.5226C15.9356 20.831 16.042 21.1997 16.029 21.5741C16.0466 21.9028 15.9748 22.2301 15.8215 22.5203C15.6681 22.8105 15.4391 23.0525 15.1593 23.2199C14.416 23.6192 13.5794 23.806 12.7393 23.7601C12.1186 23.7706 11.5001 23.6831 10.906 23.5008C10.4084 23.3452 9.94259 23.1 9.53097 22.7769C9.05992 22.3728 8.64703 21.904 8.3043 21.384L5.37897 23.6511C6.07864 24.8317 7.11508 25.7697 8.35163 26.3416C9.71284 26.9256 11.1811 27.2095 12.659 27.1746C15.0496 27.1746 16.8584 26.6693 18.0853 25.6588C19.3122 24.6483 19.9256 23.1964 19.9256 21.303C19.961 20.3824 19.7709 19.4673 19.3723 18.6392ZM38.0723 26.7768V7.87651H34.339V20.6179L28.014 7.87651H23.0806V26.7768H26.8V13.2703L33.5946 26.7768H38.0703H38.0723ZM54.9643 18.6392C54.6153 17.9695 54.1139 17.3937 53.5016 16.9593C52.8674 16.5179 52.1693 16.1793 51.4323 15.9554C50.6592 15.7143 49.8773 15.4892 49.0866 15.2801C48.0479 15.0844 47.0377 14.7563 46.0803 14.3036C45.819 14.1787 45.5987 13.9803 45.4457 13.7321C45.2926 13.4839 45.2134 13.1963 45.2173 12.9036C45.1998 12.5964 45.2684 12.2905 45.4151 12.021C45.5619 11.7516 45.7808 11.5296 46.0466 11.3808C46.7091 11.0314 47.4504 10.8642 48.1966 10.8959C48.9869 10.8748 49.77 11.0531 50.4753 11.4149C51.1852 11.8314 51.779 12.424 52.2006 13.137L55.1006 10.8425C53.7613 8.60293 51.4784 7.48313 48.252 7.48313C46.0231 7.48313 44.311 7.98614 43.1156 8.99215C41.9203 9.99816 41.3217 11.3971 41.32 13.189C41.289 14.0373 41.4747 14.8794 41.8593 15.6336C42.2193 16.2809 42.725 16.8329 43.3353 17.245C44.022 17.7024 44.7716 18.0544 45.56 18.2897C46.418 18.5582 47.3324 18.8245 48.3033 19.0886C49.0241 19.2573 49.728 19.4928 50.4063 19.7919C50.7632 19.9579 51.0753 20.2085 51.3163 20.5226C51.5264 20.831 51.6328 21.1997 51.6196 21.5741C51.6373 21.9028 51.5656 22.23 51.4123 22.5202C51.259 22.8104 51.03 23.0524 50.7503 23.2199C50.007 23.6192 49.1704 23.806 48.3303 23.7601C47.7096 23.7707 47.0911 23.6832 46.497 23.5008C45.9993 23.3453 45.5333 23.1001 45.1216 22.7769C44.6506 22.3728 44.2377 21.904 43.895 21.384L40.9693 23.6511C41.669 24.8316 42.7054 25.7697 43.942 26.3416C45.3032 26.9255 46.7715 27.2095 48.2493 27.1746C50.64 27.1746 52.4487 26.6693 53.6756 25.6588C54.9025 24.6483 55.516 23.1964 55.516 21.303C55.5516 20.3824 55.3616 19.4672 54.963 18.6392H54.9643Z" fill="#513021"/>
</svg>
