<svg width="62" height="52" viewBox="0 0 62 52" fill="none" xmlns="http://www.w3.org/2000/svg">
<path fill-rule="evenodd" clip-rule="evenodd" d="M8.01109 43.5487C8.34264 43.5487 8.6982 43.557 9.07775 43.5737V43.2715C8.87837 43.2717 8.67954 43.2501 8.48475 43.207C8.45222 43.1909 8.42594 43.1643 8.41009 43.1313C8.37172 42.9412 8.35506 42.7472 8.36042 42.5532L8.34609 41.1739L8.81275 41.1631C9.04463 41.1538 9.27683 41.1695 9.50542 41.21C9.52366 41.2132 9.54102 41.2203 9.55632 41.2308C9.57162 41.2414 9.5845 41.2551 9.59409 41.2711C9.63809 41.4501 9.66048 41.6338 9.66075 41.8182H9.96609C9.95898 41.3875 9.95542 41.0737 9.95542 40.8768C9.95542 40.6676 9.95898 40.4573 9.96609 40.2457H9.65909C9.65851 40.3989 9.63697 40.5513 9.59509 40.6985C9.58616 40.7133 9.57429 40.7261 9.56024 40.7361C9.54619 40.7461 9.53025 40.7531 9.51342 40.7565C9.29651 40.7807 9.07818 40.7892 8.86009 40.7819C8.65875 40.7819 8.48709 40.7783 8.34509 40.7711L8.34875 40.6053L8.34175 39.8286C8.34175 39.66 8.35475 39.3728 8.38075 38.9669C8.61031 38.9444 8.8282 38.9332 9.03442 38.9332C9.25014 38.9285 9.46585 38.943 9.67909 38.9764C9.77174 38.9844 9.86147 39.0133 9.94175 39.0608C9.97721 39.1301 9.99378 39.2077 9.98975 39.2857L10.0181 39.6706H10.3181C10.3253 39.3158 10.3562 38.962 10.4104 38.6114L10.3748 38.5371C10.2339 38.5306 10.0868 38.5273 9.93342 38.5273C9.71786 38.5273 9.45264 38.53 9.13775 38.5354C8.65953 38.5422 8.20253 38.5455 7.76675 38.5455C7.46831 38.5455 7.11198 38.5395 6.69775 38.5273V38.8295C6.86574 38.827 7.03321 38.8488 7.19509 38.8943C7.22333 38.9116 7.24469 38.9384 7.25542 38.97C7.30199 39.2671 7.32218 39.5678 7.31575 39.8685C7.32753 40.3874 7.33342 40.8736 7.33342 41.3272C7.33342 41.9395 7.3192 42.4798 7.29075 42.948C7.29991 43.0387 7.27622 43.1296 7.22409 43.2039C7.05632 43.2671 6.87644 43.2902 6.69842 43.2715V43.5737C7.28086 43.5568 7.71887 43.5484 8.01242 43.5487H8.01109ZM17.4988 43.3093C17.9031 43.0937 18.2369 42.7637 18.4594 42.3594C18.6959 41.9125 18.8134 41.411 18.8004 40.9041C18.8152 40.4466 18.7079 39.9935 18.4898 39.5926C18.2797 39.234 17.9721 38.9442 17.6038 38.7579C17.1405 38.5406 16.6329 38.4378 16.1228 38.4577C15.5923 38.437 15.0646 38.5443 14.5831 38.7708C14.1919 38.9719 13.8668 39.2836 13.6471 39.6683C13.4115 40.1019 13.295 40.5917 13.3098 41.0864C13.291 41.4309 13.3432 41.7756 13.463 42.0986C13.5828 42.4216 13.7676 42.7158 14.0058 42.9625C14.5593 43.4496 15.2809 43.6947 16.0124 43.6442C16.5281 43.6594 17.0393 43.5443 17.5001 43.3093H17.4988ZM15.2188 43.0212C14.9526 42.8282 14.7483 42.5603 14.6311 42.2507C14.4664 41.8363 14.3877 41.3919 14.4001 40.9453C14.3567 40.384 14.5054 39.8247 14.8211 39.3613C14.9666 39.1887 15.1495 39.0524 15.3556 38.963C15.5617 38.8737 15.7853 38.8338 16.0091 38.8464C16.2354 38.828 16.4628 38.863 16.6735 38.9485C16.8842 39.0341 17.0726 39.1678 17.2238 39.3394C17.5789 39.8513 17.7506 40.4708 17.7104 41.0952C17.7533 41.6701 17.6038 42.2428 17.2861 42.7211C17.1513 42.8947 16.9779 43.0336 16.7801 43.1265C16.5823 43.2195 16.3657 43.2638 16.1478 43.2559C15.822 43.2712 15.499 43.1896 15.2184 43.0212H15.2188ZM23.0141 43.5487C23.3428 43.5487 23.7199 43.557 24.1454 43.5737V43.2715C23.983 43.2747 23.821 43.2529 23.6651 43.2066C23.6313 43.1913 23.6038 43.1646 23.5874 43.131C23.5514 42.9326 23.5325 42.7314 23.5311 42.5296C23.5075 42.0544 23.4958 41.6644 23.4958 41.3596L23.5258 40.0127L23.5491 38.9507C23.7318 38.9338 23.8762 38.9254 23.9824 38.9254C24.2564 38.9041 24.528 38.9906 24.7408 39.1668C24.8276 39.2553 24.895 39.3614 24.9386 39.4781C24.9822 39.5949 25.001 39.7196 24.9938 39.8442C25.0023 39.9889 24.9779 40.1337 24.9224 40.2674C24.867 40.4011 24.7821 40.5202 24.6741 40.6154C24.4963 40.7813 24.2657 40.8771 24.0241 40.8855C23.9539 40.8835 23.8839 40.8775 23.8144 40.8676C23.8006 40.9123 23.7827 40.9556 23.7611 40.997L24.4928 42.1231C24.9023 42.7565 25.2101 43.2398 25.4161 43.573C25.589 43.5635 25.9761 43.5563 26.5774 43.5514L26.7871 43.548V43.2715C26.6957 43.2756 26.6046 43.259 26.5204 43.2228C26.4237 43.1506 26.3397 43.0625 26.2718 42.9622L25.6821 42.0771L24.9258 40.922C25.2559 40.808 25.5514 40.6094 25.7834 40.3456C25.9479 40.1291 26.0348 39.8624 26.0301 39.5892C26.035 39.3826 25.9815 39.1788 25.8758 39.002C25.7772 38.8395 25.6306 38.7125 25.4568 38.6391C25.1848 38.5493 24.8988 38.5109 24.6131 38.5259L22.8338 38.5513C22.6918 38.5513 22.3756 38.5428 21.8854 38.5259V38.8282C22.0408 38.835 22.1946 38.8617 22.3434 38.9075C22.371 38.923 22.3914 38.9488 22.4004 38.9794C22.4526 39.2568 22.4749 39.539 22.4671 39.8212C22.4764 40.4355 22.4812 40.942 22.4814 41.3407C22.4814 41.6358 22.4755 42.04 22.4638 42.5532C22.4684 42.7488 22.4517 42.9442 22.4141 43.1361C22.4039 43.1648 22.3837 43.1887 22.3574 43.2036C22.2029 43.2438 22.0445 43.2665 21.8851 43.2711V43.5733C22.2871 43.5564 22.663 43.5481 23.0128 43.5483L23.0141 43.5487ZM36.5018 43.5487C36.8573 43.5487 37.2083 43.557 37.5548 43.5737V43.2715C37.3675 43.2801 37.1801 43.2595 36.9991 43.2103C36.9676 43.1815 36.9428 43.1458 36.9265 43.1061C36.9101 43.0663 36.9027 43.0234 36.9048 42.9804C36.8812 42.7506 36.8694 42.3539 36.8694 41.7905C36.8586 41.6028 36.8777 41.4145 36.9261 41.233C36.9879 41.0869 37.2862 40.5896 37.8211 39.7412C38.0371 39.3844 38.2708 39.0389 38.5211 38.7059V38.5273H37.9424C37.5091 39.3345 37.1598 39.9656 36.8944 40.4206L36.6034 40.9234C36.2741 40.2521 36.0028 39.7383 35.7894 39.3819C35.6477 39.1258 35.4801 38.8852 35.2894 38.664C35.1973 38.5764 35.0915 38.5046 34.9764 38.4517C34.5918 38.5489 34.2029 38.6317 33.8098 38.7002V38.9842L33.9804 38.9771C34.0348 38.9748 34.0887 38.9873 34.1368 39.0132C34.2996 39.1292 34.4414 39.2729 34.5558 39.438C34.7213 39.6536 34.9604 40.0127 35.2731 40.5151C35.4758 40.8211 35.6586 41.1402 35.8201 41.4704C35.8621 41.67 35.8777 41.8744 35.8664 42.0782L35.8628 42.3409C35.8461 42.7845 35.835 43.0183 35.8294 43.0422C35.826 43.0767 35.8142 43.1099 35.7952 43.1387C35.7761 43.1676 35.7503 43.1913 35.7201 43.2076C35.5572 43.2611 35.3859 43.283 35.2151 43.2725V43.5747C35.6818 43.5578 36.1109 43.5495 36.5024 43.5497L36.5018 43.5487ZM45.6644 43.3093C46.0687 43.0936 46.4025 42.7637 46.6251 42.3594C46.8616 41.9126 46.9791 41.411 46.9661 40.9041C46.9808 40.4466 46.8735 39.9935 46.6554 39.5926C46.4452 39.2339 46.1375 38.9442 45.7691 38.7579C45.3058 38.5407 44.7982 38.4378 44.2881 38.4577C43.7576 38.4371 43.2299 38.5443 42.7484 38.7708C42.3573 38.9719 42.0321 39.2836 41.8124 39.6683C41.577 40.102 41.4605 40.5917 41.4751 41.0864C41.4563 41.431 41.5085 41.7757 41.6284 42.0987C41.7483 42.4217 41.9332 42.7158 42.1714 42.9625C42.725 43.4496 43.4465 43.6947 44.1781 43.6442C44.6932 43.6591 45.2038 43.544 45.6641 43.3093H45.6644ZM43.3841 43.0212C43.118 42.8282 42.9137 42.5603 42.7964 42.2507C42.6317 41.8363 42.553 41.3919 42.5654 40.9453C42.522 40.384 42.6707 39.8247 42.9864 39.3613C43.132 39.1887 43.3149 39.0524 43.5209 38.963C43.727 38.8737 43.9506 38.8338 44.1744 38.8464C44.4007 38.828 44.6281 38.863 44.8389 38.9485C45.0496 39.034 45.2379 39.1678 45.3891 39.3394C45.7442 39.8513 45.9159 40.4708 45.8758 41.0952C45.9186 41.6701 45.7691 42.2428 45.4514 42.7211C45.3166 42.8947 45.1432 43.0336 44.9454 43.1265C44.7476 43.2194 44.531 43.2638 44.3131 43.2559C43.9874 43.2711 43.6643 43.1895 43.3838 43.0212H43.3841ZM50.4548 38.893C50.4911 38.9096 50.5215 38.9372 50.5418 38.972C50.5812 39.0799 50.5993 39.1947 50.5951 39.3097C50.6071 39.8398 50.613 40.1696 50.6128 40.299L50.5951 41.9198C50.5753 42.2541 50.6443 42.5877 50.7951 42.8858C50.9595 43.1319 51.1935 43.3219 51.4664 43.4308C51.8424 43.5864 52.2465 43.6599 52.6524 43.6466C53.0468 43.6596 53.439 43.5822 53.7998 43.42C54.0727 43.2999 54.3031 43.0985 54.4604 42.8426C54.6009 42.5816 54.6822 42.2922 54.6984 41.9954C54.7102 41.8604 54.7161 41.5761 54.7161 41.1425C54.7185 40.4638 54.7328 39.856 54.7588 39.3191C54.7478 39.1745 54.7846 39.0303 54.8634 38.9092C54.9986 38.839 55.1513 38.8114 55.3021 38.8298V38.5273C54.9779 38.5442 54.7044 38.5526 54.4818 38.5526C54.2235 38.5526 53.9418 38.5442 53.6364 38.5273V38.8295C53.8123 38.8285 53.9873 38.8553 54.1551 38.9089C54.1885 38.9234 54.2151 38.9503 54.2294 38.9842C54.2673 39.1615 54.2817 39.3432 54.2721 39.5244L54.2758 40.8555C54.2983 41.346 54.2637 41.8376 54.1728 42.3199C54.1066 42.5397 53.9623 42.7268 53.7678 42.845C53.4992 42.9882 53.197 43.0542 52.8941 43.0358C52.6252 43.0383 52.3597 42.9754 52.1198 42.8524C51.9563 42.7658 51.8253 42.6274 51.7468 42.4584C51.6465 42.1943 51.603 41.9115 51.6191 41.6291C51.6191 41.171 51.6226 40.7201 51.6298 40.2764C51.6391 39.6382 51.6509 39.252 51.6651 39.1179C51.6683 39.0579 51.6866 38.9997 51.7184 38.949C51.7363 38.9212 51.7624 38.8998 51.7931 38.8879C51.9423 38.8409 52.0987 38.8214 52.2548 38.8302V38.5273C51.8308 38.5442 51.5029 38.5526 51.2711 38.5526C50.9064 38.5526 50.4825 38.5442 49.9994 38.5273V38.8295C50.1528 38.8352 50.3052 38.8565 50.4544 38.893H50.4548Z" fill="#FFE6AD"/>
<path fill-rule="evenodd" clip-rule="evenodd" d="M19.3722 18.639C19.0231 17.9694 18.5218 17.3936 17.9096 16.9591C17.2754 16.5178 16.5772 16.1791 15.8402 15.9552C15.0671 15.7141 14.2852 15.489 13.4946 15.2799C12.4558 15.0842 11.4457 14.7561 10.4882 14.3034C10.227 14.1785 10.0068 13.9801 9.85379 13.7319C9.70083 13.4836 9.6216 13.196 9.62557 12.9034C9.60809 12.5963 9.67663 12.2904 9.8233 12.0209C9.96997 11.7515 10.1888 11.5295 10.4546 11.3806C11.1171 11.0312 11.8586 10.864 12.6049 10.8957C13.3948 10.8742 14.1776 11.052 14.8829 11.413C15.5929 11.8296 16.1867 12.4222 16.6086 13.1351L19.5086 10.8407C18.1692 8.60106 15.8864 7.48126 12.6599 7.48126C10.4308 7.48126 8.71868 7.98427 7.52357 8.99028C6.32846 9.99628 5.73035 11.3958 5.72924 13.1888C5.69823 14.0371 5.88401 14.8792 6.26857 15.6334C6.62871 16.2807 7.13453 16.8328 7.74491 17.2448C8.43145 17.7022 9.181 18.0543 9.96924 18.2895C10.8275 18.5581 11.7419 18.8244 12.7126 19.0884C13.4333 19.2572 14.1373 19.4926 14.8156 19.7918C15.1724 19.9579 15.4845 20.2085 15.7256 20.5225C15.9356 20.8308 16.042 21.1995 16.0289 21.5739C16.0465 21.9026 15.9748 22.2299 15.8214 22.5201C15.6681 22.8103 15.439 23.0523 15.1592 23.2197C14.416 23.619 13.5794 23.8058 12.7392 23.76C12.1185 23.7704 11.5 23.683 10.9059 23.5006C10.4083 23.3451 9.94253 23.0998 9.53091 22.7767C9.05986 22.3727 8.64697 21.9038 8.30424 21.3838L5.37891 23.6509C6.07858 24.8315 7.11502 25.7695 8.35157 26.3414C9.71277 26.9254 11.1811 27.2094 12.6589 27.1744C15.0496 27.1744 16.8584 26.6692 18.0852 25.6586C19.3121 24.6481 19.9256 23.1962 19.9256 21.3028C19.9609 20.3822 19.7708 19.4671 19.3722 18.639ZM38.0722 26.7766V7.87633H34.3389V20.6177L28.0139 7.87633H23.0806V26.7766H26.7999V13.2701L33.5946 26.7766H38.0702H38.0722ZM54.9642 18.639C54.6153 17.9693 54.1139 17.3935 53.5016 16.9591C52.8674 16.5178 52.1693 16.1791 51.4322 15.9552C50.6591 15.7141 49.8772 15.489 49.0866 15.2799C48.0478 15.0842 47.0376 14.7561 46.0802 14.3034C45.8189 14.1785 45.5986 13.9802 45.4456 13.7319C45.2926 13.4837 45.2133 13.1961 45.2172 12.9034C45.1997 12.5962 45.2683 12.2903 45.4151 12.0208C45.5618 11.7514 45.7807 11.5294 46.0466 11.3806C46.709 11.0312 47.4504 10.8641 48.1966 10.8957C48.9869 10.8746 49.7699 11.053 50.4752 11.4147C51.1852 11.8312 51.7789 12.4238 52.2006 13.1368L55.1006 10.8424C53.7612 8.60275 51.4784 7.48295 48.2519 7.48295C46.023 7.48295 44.3109 7.98595 43.1156 8.99196C41.9202 9.99797 41.3217 11.3969 41.3199 13.1888C41.2889 14.0371 41.4747 14.8792 41.8592 15.6334C42.2193 16.2807 42.725 16.8327 43.3352 17.2448C44.0219 17.7022 44.7716 18.0542 45.5599 18.2895C46.4179 18.5581 47.3324 18.8244 48.3032 19.0884C49.024 19.2571 49.728 19.4926 50.4062 19.7918C50.7631 19.9577 51.0753 20.2084 51.3162 20.5225C51.5263 20.8308 51.6327 21.1995 51.6196 21.5739C51.6372 21.9026 51.5655 22.2298 51.4122 22.52C51.259 22.8102 51.03 23.0523 50.7502 23.2197C50.007 23.619 49.1704 23.8058 48.3302 23.76C47.7095 23.7705 47.091 23.683 46.4969 23.5006C45.9992 23.3451 45.5333 23.0999 45.1216 22.7767C44.6506 22.3726 44.2377 21.9038 43.8949 21.3838L40.9692 23.6509C41.669 24.8314 42.7054 25.7695 43.9419 26.3414C45.3031 26.9254 46.7714 27.2093 48.2492 27.1744C50.6399 27.1744 52.4487 26.6692 53.6756 25.6586C54.9025 24.6481 55.5159 23.1962 55.5159 21.3028C55.5515 20.3822 55.3615 19.4671 54.9629 18.639H54.9642Z" fill="#FFE6AD"/>
</svg>
