<svg width="62" height="52" fill="none" xmlns="http://www.w3.org/2000/svg"><path fill-rule="evenodd" clip-rule="evenodd" d="M8.011 43.549c.332 0 .687.008 1.067.025v-.302c-.2 0-.399-.022-.593-.065a.163.163 0 01-.075-.076 2.564 2.564 0 01-.05-.578l-.014-1.38.467-.01c.232-.01.464.007.692.047a.13.13 0 01.089.061c.044.18.066.363.067.547h.305c-.007-.43-.01-.744-.01-.941 0-.21.003-.42.01-.631h-.307c0 .153-.022.305-.064.453a.126.126 0 01-.082.058 4.526 4.526 0 01-.653.025 10.4 10.4 0 01-.515-.01l.004-.167-.007-.776c0-.169.013-.456.039-.862a6.56 6.56 0 01.653-.034c.216-.005.432.01.645.043a.62.62 0 01.263.085.45.45 0 01.048.225l.028.385h.3c.007-.355.038-.709.092-1.06l-.035-.074a9.586 9.586 0 00-.442-.01c-.215 0-.48.003-.795.008-.479.007-.936.01-1.371.01-.299 0-.655-.006-1.07-.018v.303c.169-.003.336.019.498.064.028.018.05.044.06.076.047.297.067.598.06.898.012.52.018 1.006.018 1.46 0 .611-.014 1.152-.042 1.62a.38.38 0 01-.067.256 1.15 1.15 0 01-.526.068v.302c.583-.017 1.02-.026 1.314-.025h-.001zm9.488-.24a2.36 2.36 0 00.96-.95 2.95 2.95 0 00.341-1.455 2.572 2.572 0 00-.31-1.311 2.156 2.156 0 00-.886-.835 3.194 3.194 0 00-1.481-.3 3.313 3.313 0 00-1.54.313 2.279 2.279 0 00-.936.897 2.798 2.798 0 00-.337 1.418 2.517 2.517 0 00.696 1.877 2.75 2.75 0 002.006.681c.516.015 1.027-.1 1.488-.335h-.001zm-2.28-.288a1.69 1.69 0 01-.588-.77 3.29 3.29 0 01-.231-1.306 2.476 2.476 0 01.421-1.584 1.44 1.44 0 011.188-.515 1.454 1.454 0 011.215.493c.355.512.527 1.132.486 1.756a2.592 2.592 0 01-.424 1.626 1.388 1.388 0 01-1.138.535 1.654 1.654 0 01-.93-.235zm7.795.528c.329 0 .706.008 1.131.025v-.302a1.578 1.578 0 01-.48-.065.16.16 0 01-.078-.076 3.505 3.505 0 01-.056-.601 24.593 24.593 0 01-.035-1.17l.03-1.347.023-1.062c.183-.017.327-.026.433-.026a1.06 1.06 0 01.759.242.889.889 0 01.253.677.959.959 0 01-.32.771 1.004 1.004 0 01-.65.27 1.863 1.863 0 01-.21-.017.773.773 0 01-.053.129l.732 1.126c.41.634.717 1.117.923 1.45.173-.01.56-.017 1.161-.022l.21-.003v-.276a.606.606 0 01-.267-.05 1.083 1.083 0 01-.248-.26l-.59-.885-.756-1.155c.33-.114.625-.313.857-.576.165-.217.252-.484.247-.757a1.093 1.093 0 00-.154-.587.9.9 0 00-.42-.363 2.305 2.305 0 00-.843-.113l-1.78.025c-.141 0-.457-.008-.948-.025v.302c.156.007.31.034.458.08a.122.122 0 01.057.071c.053.278.075.56.067.842a55.859 55.859 0 01-.003 2.732c.004.196-.012.391-.05.583a.126.126 0 01-.057.068c-.154.04-.313.063-.472.067v.302a26.58 26.58 0 011.128-.025h.001zm13.488 0c.355 0 .706.008 1.053.025v-.302a1.803 1.803 0 01-.556-.062.291.291 0 01-.094-.23c-.024-.23-.036-.626-.036-1.19-.01-.187.009-.376.057-.557.062-.146.36-.643.895-1.492.216-.357.45-.702.7-1.035v-.179h-.579a65.233 65.233 0 01-1.048 1.894l-.29.502a22.43 22.43 0 00-.815-1.541 4.258 4.258 0 00-.5-.718 1.155 1.155 0 00-.313-.212c-.384.097-.773.18-1.166.248v.284l.17-.007a.302.302 0 01.157.036c.163.116.304.26.419.425.165.216.404.575.717 1.077.203.306.385.625.547.955.042.2.058.404.046.608l-.003.263a14.01 14.01 0 01-.034.701.214.214 0 01-.109.166 1.352 1.352 0 01-.505.065v.302a33.37 33.37 0 011.287-.025v-.001zm9.162-.24c.405-.215.738-.545.961-.95.236-.446.354-.948.341-1.455a2.572 2.572 0 00-.31-1.311 2.155 2.155 0 00-.887-.835 3.195 3.195 0 00-1.481-.3 3.314 3.314 0 00-1.54.313 2.278 2.278 0 00-.936.897 2.8 2.8 0 00-.337 1.418 2.516 2.516 0 00.696 1.877 2.75 2.75 0 002.007.681 3.07 3.07 0 001.486-.335zm-2.28-.288a1.69 1.69 0 01-.588-.77 3.286 3.286 0 01-.23-1.306 2.474 2.474 0 01.42-1.584 1.458 1.458 0 011.188-.515 1.453 1.453 0 011.215.493c.355.512.527 1.132.487 1.756a2.592 2.592 0 01-.425 1.626 1.389 1.389 0 01-1.138.535 1.656 1.656 0 01-.93-.235h.001zm7.07-4.128a.195.195 0 01.088.079c.04.108.057.223.053.338.012.53.018.86.018.989l-.018 1.62a1.9 1.9 0 00.2.967c.164.246.398.436.671.545.376.155.78.229 1.186.216.395.013.787-.065 1.148-.227.273-.12.503-.322.66-.577.14-.261.222-.55.238-.848.012-.135.018-.419.018-.852a41.22 41.22 0 01.043-1.824.66.66 0 01.104-.41.753.753 0 01.439-.08v-.302c-.324.017-.598.026-.82.026-.258 0-.54-.009-.846-.026v.303c.176-.002.351.025.519.079a.14.14 0 01.074.075c.038.177.053.36.043.54l.004 1.331c.022.491-.012.983-.103 1.465a.926.926 0 01-.405.525c-.269.143-.571.21-.874.19a1.663 1.663 0 01-.774-.183.851.851 0 01-.373-.394 2.017 2.017 0 01-.128-.829c0-.458.004-.909.01-1.353.01-.638.022-1.024.036-1.158a.353.353 0 01.053-.169.156.156 0 01.075-.061c.15-.047.306-.067.462-.058v-.303a26.51 26.51 0 01-.984.026c-.365 0-.788-.009-1.272-.026v.303c.154.005.306.026.455.063zM19.372 18.64a4.754 4.754 0 00-1.462-1.68 7.378 7.378 0 00-2.07-1.005 55.765 55.765 0 00-2.345-.675 12.406 12.406 0 01-3.007-.976 1.512 1.512 0 01-.634-.572 1.54 1.54 0 01-.228-.828 1.65 1.65 0 01.197-.883c.147-.27.366-.491.632-.64a4.225 4.225 0 012.15-.485 4.716 4.716 0 012.278.517 4.87 4.87 0 011.726 1.722l2.9-2.294c-1.34-2.24-3.623-3.36-6.849-3.36-2.23 0-3.941.503-5.136 1.51-1.195 1.005-1.794 2.405-1.795 4.198-.03.848.155 1.69.54 2.445a4.7 4.7 0 001.476 1.611c.687.457 1.436.81 2.224 1.045.859.268 1.773.535 2.744.799.72.168 1.424.404 2.103.703.356.166.669.417.91.73.21.309.316.678.303 1.052a1.8 1.8 0 01-.87 1.646c-.743.4-1.58.586-2.42.54a5.903 5.903 0 01-1.833-.26 4.31 4.31 0 01-1.375-.723 6.674 6.674 0 01-1.227-1.393L5.38 23.651a6.755 6.755 0 002.973 2.69c1.36.585 2.83.868 4.307.834 2.39 0 4.2-.506 5.426-1.516 1.227-1.01 1.84-2.463 1.84-4.356a5.643 5.643 0 00-.553-2.664zm18.7 8.137v-18.9H34.34v12.74l-6.325-12.74h-4.933v18.9H26.8V13.27l6.795 13.507h4.477zm16.892-8.138a4.75 4.75 0 00-1.462-1.68 7.375 7.375 0 00-2.07-1.004 55.765 55.765 0 00-2.345-.675 12.406 12.406 0 01-3.007-.976 1.512 1.512 0 01-.634-.572 1.54 1.54 0 01-.229-.828 1.65 1.65 0 01.198-.883c.147-.27.366-.491.632-.64a4.223 4.223 0 012.15-.485 4.715 4.715 0 012.278.519 4.868 4.868 0 011.726 1.722l2.9-2.295c-1.34-2.24-3.623-3.359-6.849-3.359-2.229 0-3.941.503-5.136 1.51-1.196 1.005-1.794 2.404-1.796 4.196-.031.848.155 1.69.54 2.445a4.7 4.7 0 001.475 1.611 8.29 8.29 0 002.225 1.045c.858.268 1.772.535 2.743.799.721.168 1.425.404 2.103.703.357.166.67.416.91.73.21.309.317.678.304 1.052a1.816 1.816 0 01-.87 1.646c-.743.4-1.58.586-2.42.54a5.903 5.903 0 01-1.833-.26 4.308 4.308 0 01-1.375-.723 6.674 6.674 0 01-1.227-1.393l-2.926 2.267a6.755 6.755 0 002.973 2.69 10.32 10.32 0 004.307.834c2.391 0 4.2-.506 5.427-1.516 1.227-1.01 1.84-2.463 1.84-4.356a5.64 5.64 0 00-.553-2.664h.001z" fill="#513021"/></svg>